<?xml version="1.0" encoding="utf-8"?>
<svg xmlns="http://www.w3.org/2000/svg">
  <symbol id="double-tick" viewBox="0 0 448 512">
    <!--!Font Awesome Pro v6.7.2 by @fontawesome - https://fontawesome.com License - https://fontawesome.com/license (Commercial License) Copyright 2025 Fonticons, Inc.--><path d="M331.3 75.3c6.2-6.2 6.2-16.4 0-22.6s-16.4-6.2-22.6 0L160 201.4 91.3 132.7c-6.2-6.2-16.4-6.2-22.6 0s-6.2 16.4 0 22.6l80 80c6.2 6.2 16.4 6.2 22.6 0l160-160zm112 112c6.2-6.2 6.2-16.4 0-22.6s-16.4-6.2-22.6 0L160 425.4 27.3 292.7c-6.2-6.2-16.4-6.2-22.6 0s-6.2 16.4 0 22.6l144 144c6.2 6.2 16.4 6.2 22.6 0l272-272z"/>
  </symbol>
  <symbol id="facebook" viewBox="0 0 640 640">
    <!--!Font Awesome Free v7.1.0 by @fontawesome - https://fontawesome.com License - https://fontawesome.com/license/free Copyright 2025 Fonticons, Inc.--><path d="M240 363.3L240 576L356 576L356 363.3L442.5 363.3L460.5 265.5L356 265.5L356 230.9C356 179.2 376.3 159.4 428.7 159.4C445 159.4 458.1 159.8 465.7 160.6L465.7 71.9C451.4 68 416.4 64 396.2 64C289.3 64 240 114.5 240 223.4L240 265.5L174 265.5L174 363.3L240 363.3z"/>
  </symbol>
  <symbol id="x" viewBox="0 0 640 640">
    <!--!Font Awesome Free v7.1.0 by @fontawesome - https://fontawesome.com License - https://fontawesome.com/license/free Copyright 2025 Fonticons, Inc.--><path d="M453.2 112L523.8 112L369.6 288.2L551 528L409 528L297.7 382.6L170.5 528L99.8 528L264.7 339.5L90.8 112L236.4 112L336.9 244.9L453.2 112zM428.4 485.8L467.5 485.8L215.1 152L173.1 152L428.4 485.8z"/>
  </symbol>
  <symbol id="instagram" viewBox="0 0 640 640">
    <!--!Font Awesome Free v7.1.0 by @fontawesome - https://fontawesome.com License - https://fontawesome.com/license/free Copyright 2025 Fonticons, Inc.--><path d="M320.3 205C256.8 204.8 205.2 256.2 205 319.7C204.8 383.2 256.2 434.8 319.7 435C383.2 435.2 434.8 383.8 435 320.3C435.2 256.8 383.8 205.2 320.3 205zM319.7 245.4C360.9 245.2 394.4 278.5 394.6 319.7C394.8 360.9 361.5 394.4 320.3 394.6C279.1 394.8 245.6 361.5 245.4 320.3C245.2 279.1 278.5 245.6 319.7 245.4zM413.1 200.3C413.1 185.5 425.1 173.5 439.9 173.5C454.7 173.5 466.7 185.5 466.7 200.3C466.7 215.1 454.7 227.1 439.9 227.1C425.1 227.1 413.1 215.1 413.1 200.3zM542.8 227.5C541.1 191.6 532.9 159.8 506.6 133.6C480.4 107.4 448.6 99.2 412.7 97.4C375.7 95.3 264.8 95.3 227.8 97.4C192 99.1 160.2 107.3 133.9 133.5C107.6 159.7 99.5 191.5 97.7 227.4C95.6 264.4 95.6 375.3 97.7 412.3C99.4 448.2 107.6 480 133.9 506.2C160.2 532.4 191.9 540.6 227.8 542.4C264.8 544.5 375.7 544.5 412.7 542.4C448.6 540.7 480.4 532.5 506.6 506.2C532.8 480 541 448.2 542.8 412.3C544.9 375.3 544.9 264.5 542.8 227.5zM495 452C487.2 471.6 472.1 486.7 452.4 494.6C422.9 506.3 352.9 503.6 320.3 503.6C287.7 503.6 217.6 506.2 188.2 494.6C168.6 486.8 153.5 471.7 145.6 452C133.9 422.5 136.6 352.5 136.6 319.9C136.6 287.3 134 217.2 145.6 187.8C153.4 168.2 168.5 153.1 188.2 145.2C217.7 133.5 287.7 136.2 320.3 136.2C352.9 136.2 423 133.6 452.4 145.2C472 153 487.1 168.1 495 187.8C506.7 217.3 504 287.3 504 319.9C504 352.5 506.7 422.6 495 452z"/>
  </symbol>
  <symbol id="chevron-down" viewBox="0 0 640 640">
    <!--!Font Awesome Free v7.1.0 by @fontawesome - https://fontawesome.com License - https://fontawesome.com/license/free Copyright 2025 Fonticons, Inc.--><path d="M331.3 475.3C325.1 481.5 314.9 481.5 308.7 475.3L100.7 267.3C94.5 261.1 94.5 250.9 100.7 244.7C106.9 238.5 117.1 238.5 123.3 244.7L320 441.4L516.7 244.7C522.9 238.5 533.1 238.5 539.3 244.7C545.5 250.9 545.5 261.1 539.3 267.3L331.3 475.3z"/>
  </symbol>
  <symbol id="chart-up" viewBox="0 0 640 640">
    <!--!Font Awesome Pro v7.1.0 by @fontawesome - https://fontawesome.com License - https://fontawesome.com/license (Commercial License) Copyright 2025 Fonticons, Inc.--><path d="M96 112C96 103.2 88.8 96 80 96C71.2 96 64 103.2 64 112L64 464C64 508.2 99.8 544 144 544L560 544C568.8 544 576 536.8 576 528C576 519.2 568.8 512 560 512L144 512C117.5 512 96 490.5 96 464L96 112zM384 208C384 216.8 391.2 224 400 224L489.4 224L384 329.4L299.3 244.7C293.1 238.5 282.9 238.5 276.7 244.7L164.7 356.7C158.5 362.9 158.5 373.1 164.7 379.3C170.9 385.5 181.1 385.5 187.3 379.3L288 278.6L372.7 363.3C378.9 369.5 389.1 369.5 395.3 363.3L512 246.6L512 336C512 344.8 519.2 352 528 352C536.8 352 544 344.8 544 336L544 208C544 199.2 536.8 192 528 192L400 192C391.2 192 384 199.2 384 208z"/>
  </symbol>
  <symbol id="chats" viewBox="0 0 640 640"><!--!Font Awesome Free v7.1.0 by @fontawesome - https://fontawesome.com License - https://fontawesome.com/license/free Copyright 2025 Fonticons, Inc.--><path d="M94.6 317.6C98.4 307.5 96.9 296 90.5 287.3C73.6 264.4 64 237.1 64 208C64 131 133 64 224 64C315 64 384 131 384 208C384 285 315 352 224 352C206 352 188.8 349.3 172.8 344.5C166 342.4 158.7 342.7 152.1 345.2L72.6 375.5L94.6 317.7zM32 208C32 244.4 44 278.2 64.7 306.2L33.3 388.5C32.4 390.8 32 393.2 32 395.7C32 406.9 41.1 416 52.3 416C54.8 416 57.2 415.5 59.5 414.7L163.5 375.1C182.5 380.9 202.9 384 224.1 384C330.1 384 416.1 305.2 416.1 208C416.1 110.8 330 32 224 32C118 32 32 110.8 32 208zM416 576C437.2 576 457.5 572.9 476.6 567.1L580.6 606.7C582.9 607.6 585.4 608 587.8 608C599 608 608.1 598.9 608.1 587.7C608.1 585.2 607.6 582.8 606.8 580.5L575.5 498.2C596.1 470.1 608.2 436.3 608.2 400C608.2 317.6 546.5 248.5 463.2 229.3C462.1 240.1 460.3 250.6 457.6 260.8C527.4 277.5 576.2 335.2 576.2 400C576.2 429.1 566.6 456.4 549.7 479.3C543.3 488.1 541.7 499.5 545.6 509.6L567.6 567.4L488.1 537.1C481.5 534.6 474.2 534.3 467.4 536.4C451.4 541.3 434.2 543.9 416.2 543.9C337.1 543.9 274.6 493.2 259.6 429.4C249 430.9 238.2 431.7 227.3 431.8C243.7 513.7 322 575.8 416.1 575.8z"/>
  </symbol>
  <symbol id="calendar-star" viewBox="0 0 448 512"><!--!Font Awesome Pro v6.7.2 by @fontawesome - https://fontawesome.com License - https://fontawesome.com/license (Commercial License) Copyright 2025 Fonticons, Inc.--><path d="M128 16c0-8.8-7.2-16-16-16s-16 7.2-16 16l0 48L64 64C28.7 64 0 92.7 0 128l0 32 0 32L0 448c0 35.3 28.7 64 64 64l320 0c35.3 0 64-28.7 64-64l0-256 0-32 0-32c0-35.3-28.7-64-64-64l-32 0 0-48c0-8.8-7.2-16-16-16s-16 7.2-16 16l0 48L128 64l0-48zM32 192l384 0 0 256c0 17.7-14.3 32-32 32L64 480c-17.7 0-32-14.3-32-32l0-256zM64 96l320 0c17.7 0 32 14.3 32 32l0 32L32 160l0-32c0-17.7 14.3-32 32-32zM245.5 231.5c-8.8-17.8-34.2-17.8-43 0l-22 44.6-49.2 7.2c-19.7 2.9-27.5 27.1-13.3 40.9l35.6 34.7-8.4 49c-3.4 19.6 17.2 34.6 34.8 25.3l44-23.2 44 23.2c17.6 9.3 38.2-5.7 34.8-25.3l-8.4-49 35.6-34.7c14.2-13.9 6.4-38.1-13.3-40.9l-49.2-7.2-22-44.6zm-40.1 66.3L224 260.2l18.6 37.6 3.7 7.5 8.3 1.2 41.5 6-30 29.3-6 5.9 1.4 8.3 7.1 41.4-37.1-19.5-7.4-3.9-7.4 3.9-37.1 19.5 7.1-41.4 1.4-8.3-6-5.9-30-29.3 41.5-6 8.3-1.2 3.7-7.5z"/>
  </symbol>
  <symbol id="person-arms-raised" viewBox="0 0 640 640"><!--!Font Awesome Pro v7.1.0 by @fontawesome - https://fontawesome.com License - https://fontawesome.com/license (Commercial License) Copyright 2025 Fonticons, Inc.--><path d="M175.7 44.9C174 36.2 165.5 30.6 156.9 32.3C148.3 34 142.6 42.5 144.3 51.1L151.2 85.6C161.7 138 195.2 180.8 240 204.3L240 592C240 600.8 247.2 608 256 608C264.8 608 272 600.8 272 592L272 432L368 432L368 592C368 600.8 375.2 608 384 608C392.8 608 400 600.8 400 592L400 204.3C444.8 180.8 478.3 138 488.8 85.6L495.7 51.1C497.4 42.4 491.8 34 483.1 32.3C474.4 30.6 466 36.2 464.3 44.9L457.4 79.4C444.3 144.9 386.8 192 320 192C253.2 192 195.7 144.9 182.6 79.3L175.7 44.9zM368 400L272 400L272 217.2C287.3 221.6 303.4 224 320 224C336.6 224 352.7 221.6 368 217.2L368 400zM296 88C296 74.7 306.7 64 320 64C333.3 64 344 74.7 344 88C344 101.3 333.3 112 320 112C306.7 112 296 101.3 296 88zM376 88C376 57.1 350.9 32 320 32C289.1 32 264 57.1 264 88C264 118.9 289.1 144 320 144C350.9 144 376 118.9 376 88z"/>
  </symbol>
  <symbol id="cloud-plus" viewBox="0 0 640 640"><!--!Font Awesome Pro v7.1.0 by @fontawesome - https://fontawesome.com License - https://fontawesome.com/license (Commercial License) Copyright 2025 Fonticons, Inc.--><path d="M160 240C160 178.1 210.1 128 272 128C311.3 128 345.8 148.2 365.8 178.8C370.2 185.5 378.9 187.9 386.1 184.5C397.5 179 410.4 176 424 176C472.6 176 512 215.4 512 264C512 278.1 508.7 291.4 502.8 303.2C500.8 307.3 500.6 312.1 502.3 316.3C504 320.5 507.5 323.9 511.8 325.4C549.2 338.5 576 374.2 576 416C576 469 533 512 480 512L176 512C114.1 512 64 461.9 64 400C64 346.3 101.8 301.4 152.2 290.5C156.5 289.6 160.3 286.9 162.5 283.1C164.7 279.3 165.4 274.8 164.2 270.5C161.5 260.8 160 250.6 160 240zM272 96C192.5 96 128 160.5 128 240C128 248 128.7 255.9 129.9 263.5C73 282.7 32 336.5 32 400C32 479.5 96.5 544 176 544L480 544C550.7 544 608 486.7 608 416C608 366.1 579.5 323 537.9 301.8C541.8 289.9 544 277.2 544 264C544 197.7 490.3 144 424 144C410.3 144 397.1 146.3 384.8 150.5C358.4 117.3 317.7 96 272 96zM304 424C304 432.8 311.2 440 320 440C328.8 440 336 432.8 336 424L336 368L392 368C400.8 368 408 360.8 408 352C408 343.2 400.8 336 392 336L336 336L336 280C336 271.2 328.8 264 320 264C311.2 264 304 271.2 304 280L304 336L248 336C239.2 336 232 343.2 232 352C232 360.8 239.2 368 248 368L304 368L304 424z"/>
  </symbol>
  <symbol id="cloud-up" viewBox="0 0 640 640"><!--!Font Awesome Pro v7.1.0 by @fontawesome - https://fontawesome.com License - https://fontawesome.com/license (Commercial License) Copyright 2025 Fonticons, Inc.--><path d="M160 240C160 178.1 210.1 128 272 128C311.3 128 345.8 148.2 365.8 178.8C370.2 185.5 378.9 187.9 386.1 184.5C397.5 179 410.4 176 424 176C472.6 176 512 215.4 512 264C512 278.1 508.7 291.4 502.8 303.2C500.8 307.3 500.6 312.1 502.3 316.3C504 320.5 507.5 323.9 511.8 325.4C549.2 338.5 576 374.2 576 416C576 469 533 512 480 512L176 512C114.1 512 64 461.9 64 400C64 346.3 101.8 301.4 152.2 290.5C156.5 289.6 160.3 286.9 162.5 283.1C164.7 279.3 165.4 274.8 164.2 270.5C161.5 260.8 160 250.6 160 240zM272 96C192.5 96 128 160.5 128 240C128 248 128.7 255.9 129.9 263.5C73 282.7 32 336.5 32 400C32 479.5 96.5 544 176 544L480 544C550.7 544 608 486.7 608 416C608 366.1 579.5 323 537.9 301.8C541.8 289.9 544 277.2 544 264C544 197.7 490.3 144 424 144C410.3 144 397.1 146.3 384.8 150.5C358.4 117.3 317.7 96 272 96zM331.3 260.7C325.1 254.5 314.9 254.5 308.7 260.7L236.7 332.7C230.5 338.9 230.5 349.1 236.7 355.3C242.9 361.5 253.1 361.5 259.3 355.3L304 310.6L304 432C304 440.8 311.2 448 320 448C328.8 448 336 440.8 336 432L336 310.6L380.7 355.3C386.9 361.5 397.1 361.5 403.3 355.3C409.5 349.1 409.5 338.9 403.3 332.7L331.3 260.7z"/>
  </symbol>
  <symbol id="cloud-question" viewBox="0 0 640 640"><!--!Font Awesome Pro v7.1.0 by @fontawesome - https://fontawesome.com License - https://fontawesome.com/license (Commercial License) Copyright 2025 Fonticons, Inc.--><path d="M160 240C160 178.1 210.1 128 272 128C311.3 128 345.8 148.2 365.8 178.8C370.2 185.5 378.9 187.9 386.1 184.5C397.5 179 410.4 176 424 176C472.6 176 512 215.4 512 264C512 278.1 508.7 291.4 502.8 303.2C500.8 307.3 500.6 312.1 502.3 316.3C504 320.5 507.5 323.9 511.8 325.4C549.2 338.5 576 374.2 576 416C576 469 533 512 480 512L176 512C114.1 512 64 461.9 64 400C64 346.3 101.8 301.4 152.2 290.5C156.5 289.6 160.3 286.9 162.5 283.1C164.7 279.3 165.4 274.8 164.2 270.5C161.5 260.8 160 250.6 160 240zM272 96C192.5 96 128 160.5 128 240C128 248 128.7 255.9 129.9 263.5C73 282.7 32 336.5 32 400C32 479.5 96.5 544 176 544L480 544C550.7 544 608 486.7 608 416C608 366.1 579.5 323 537.9 301.8C541.8 289.9 544 277.2 544 264C544 197.7 490.3 144 424 144C410.3 144 397.1 146.3 384.8 150.5C358.4 117.3 317.7 96 272 96zM320 272C340.6 272 357.2 288.7 357.2 309.2C357.2 327 346.2 336.2 334 341.7C319.3 348.3 303.9 363.2 303.9 384C303.9 392.8 311.1 400 319.9 400C328.7 400 335.9 392.8 335.9 384C335.9 380.2 339.3 374.4 347 370.9C364.8 362.9 389.1 345 389.1 309.2C389.1 271 358.1 240 319.9 240C281.7 240 250.7 271 250.7 309.2C250.7 318 257.9 325.2 266.7 325.2C275.5 325.2 282.7 318 282.7 309.2C282.7 288.6 299.4 272 319.9 272zM340 448C340 437 331 428 320 428C309 428 300 437 300 448C300 459 309 468 320 468C331 468 340 459 340 448z"/>
  </symbol>
  <symbol id="email" viewBox="0 0 640 640"><!--!Font Awesome Pro v7.1.0 by @fontawesome - https://fontawesome.com License - https://fontawesome.com/license (Commercial License) Copyright 2025 Fonticons, Inc.--><path d="M64 186.5L64 184L64.1 184C65.3 152.9 91 128 122.5 128L517.5 128C549 128 574.6 152.9 575.9 184L576 184L576 448C576 483.3 547.3 512 512 512L128 512C92.7 512 64 483.3 64 448L64 186.5zM544 239.6L367.3 369.1C339.1 389.7 300.8 389.7 272.7 369.1L96 239.6L96 448C96 465.7 110.3 480 128 480L512 480C529.7 480 544 465.7 544 448L544 239.6zM544 186.5C544 171.9 532.1 160 517.5 160L122.5 160C107.9 160 96 171.9 96 186.5C96 194.9 100 202.9 106.8 207.9L291.6 343.3C308.5 355.7 331.5 355.7 348.4 343.3L533.2 207.8C540 202.8 544 194.9 544 186.4z"/>
  </symbol>
  <symbol id="phone" viewBox="0 0 640 640"><!--!Font Awesome Pro v7.1.0 by @fontawesome - https://fontawesome.com License - https://fontawesome.com/license (Commercial License) Copyright 2025 Fonticons, Inc.--><path d="M208.4 106.7C205 98.7 196.2 94.4 187.8 96.6L181.1 98.4C127.9 113 86.1 163.1 98.2 221.4C131.6 382 258.1 508.4 418.7 541.9C476.9 554 527.1 512.2 541.6 458.9L543.4 452.2C545.7 443.8 541.4 435 533.3 431.6L440 392.7C432.9 389.8 424.8 391.8 419.9 397.7L383.3 442.4C378.6 448.1 370.7 449.9 364.1 446.7C289.1 411.1 229.1 349.1 196 272.7C193.2 266.1 195 258.5 200.6 254L242.2 219.9C248.1 215.1 250.2 206.9 247.2 199.8L208.4 106.7zM179.4 65.8C203.3 59.3 228.4 71.5 237.9 94.4L276.8 187.7C285.2 207.8 279.4 231.1 262.5 244.9L230.4 271.2C259.4 331.7 307.5 381.4 366.7 412.5L395.2 377.6C409 360.7 432.2 354.9 452.4 363.3L545.7 402.2C568.6 411.7 580.8 436.8 574.3 460.7L572.5 467.4C554.8 532.3 491.2 589.6 412.2 573.2C239.1 537.2 102.9 401 66.9 227.9C50.4 148.8 107.7 85.3 172.7 67.6L179.4 65.8z"/>
  </symbol>
  <symbol id="email-duo" viewBox="0 0 640 640"><!--!Font Awesome Pro v7.1.0 by @fontawesome - https://fontawesome.com License - https://fontawesome.com/license (Commercial License) Copyright 2025 Fonticons, Inc.-->
    <path fill="currentColor" opacity=".4" d="M96 186.5C96 194.9 100 202.9 106.8 207.9L291.6 343.3C308.5 355.7 331.5 355.7 348.4 343.3L533.2 207.8C540 202.8 544 194.9 544 186.4C544 171.8 532.1 159.9 517.5 159.9L122.5 159.9C107.9 160 96 171.9 96 186.5zM96 239.6L96 448C96 465.7 110.3 480 128 480L512 480C529.7 480 544 465.7 544 448L544 239.6L367.3 369.2C339.1 389.8 300.8 389.8 272.7 369.2L96 239.6z"/>
    <path fill="currentColor" d="M64 186.5L64 184L64.1 184C65.3 152.9 91 128 122.5 128L517.5 128C549 128 574.6 152.9 575.9 184L576 184L576 448C576 483.3 547.3 512 512 512L128 512C92.7 512 64 483.3 64 448L64 186.5zM544 239.6L367.3 369.1C339.1 389.7 300.8 389.7 272.7 369.1L96 239.6L96 448C96 465.7 110.3 480 128 480L512 480C529.7 480 544 465.7 544 448L544 239.6zM544 186.5C544 171.9 532.1 160 517.5 160L122.5 160C107.9 160 96 171.9 96 186.5C96 194.9 100 202.9 106.8 207.9L291.6 343.3C308.5 355.7 331.5 355.7 348.4 343.3L533.2 207.8C540 202.8 544 194.9 544 186.4z"/>
  </symbol>
  <symbol id="chevron-down-solid" viewBox="0 0 448 512"><!--!Font Awesome Free v7.1.0 by @fontawesome - https://fontawesome.com License - https://fontawesome.com/license/free Copyright 2025 Fonticons, Inc.--><path d="M201.4 406.6c12.5 12.5 32.8 12.5 45.3 0l192-192c12.5-12.5 12.5-32.8 0-45.3s-32.8-12.5-45.3 0L224 338.7 54.6 169.4c-12.5-12.5-32.8-12.5-45.3 0s-12.5 32.8 0 45.3l192 192z"/></symbol>  
  <symbol id="plus" viewBox="0 0 448 512"><!--!Font Awesome Pro v7.1.0 by @fontawesome - https://fontawesome.com License - https://fontawesome.com/license (Commercial License) Copyright 2026 Fonticons, Inc.--><path d="M248 56c0-13.3-10.7-24-24-24s-24 10.7-24 24l0 176-176 0c-13.3 0-24 10.7-24 24s10.7 24 24 24l176 0 0 176c0 13.3 10.7 24 24 24s24-10.7 24-24l0-176 176 0c13.3 0 24-10.7 24-24s-10.7-24-24-24l-176 0 0-176z"/></symbol>
  
  <!--Oblongs-->
  <symbol id="oblong-yellow-red" viewBox="0 0 193 958">
    <rect width="192.6" height="957.6" rx="90" fill="url(#paint0_linear_236_141)"/>
    <defs>
    <linearGradient id="paint0_linear_236_141" x1="96.3" y1="0" x2="96.3" y2="957.6" gradientUnits="userSpaceOnUse">
    <stop stop-color="#FDBD2C"/>
    <stop offset="1" stop-color="#ED2124"/>
    </linearGradient>
    </defs>
  </symbol>

  <symbol id="oblong-yellow-green" viewBox="0 0 193 958">
    <rect width="192.6" height="957.6" rx="90" fill="url(#paint0_linear_236_143)"/>
    <defs>
    <linearGradient id="paint0_linear_236_143" x1="96.3" y1="0" x2="96.3" y2="957.6" gradientUnits="userSpaceOnUse">
    <stop stop-color="#FDBD2C"/>
    <stop offset="1" stop-color="#00AD8E"/>
    </linearGradient>
    </defs>
  </symbol>

  <symbol id="oblong-pink-red" viewBox="0 0 193 958">
    <rect width="192.6" height="957.6" rx="90" fill="url(#paint0_linear_236_114)"/>
    <defs>
    <linearGradient id="paint0_linear_236_114" x1="96.3" y1="0" x2="96.3" y2="957.6" gradientUnits="userSpaceOnUse">
    <stop stop-color="#ED2B94"/>
    <stop offset="1" stop-color="#ED1C24"/>
    </linearGradient>
    </defs>
  </symbol>

  <symbol id="oblong-pink-blue" viewBox="0 0 193 958">
    <rect width="192.6" height="957.6" rx="90" fill="url(#paint0_linear_236_132)"/>
    <defs>
    <linearGradient id="paint0_linear_236_132" x1="96.3" y1="0" x2="96.3" y2="957.6" gradientUnits="userSpaceOnUse">
    <stop stop-color="#ED2B94"/>
    <stop offset="1" stop-color="#00A1E4"/>
    </linearGradient>
    </defs>
  </symbol>

  <symbol id="oblong-green-blue" viewBox="0 0 193 958">
    <rect width="192.6" height="957.6" rx="90" fill="url(#paint0_linear_236_123)"/>
    <defs>
    <linearGradient id="paint0_linear_236_123" x1="96.3" y1="0" x2="96.3" y2="957.6" gradientUnits="userSpaceOnUse">
    <stop stop-color="#00A1E4"/>
    <stop offset="1" stop-color="#00AD8E"/>
    </linearGradient>
    </defs>
  </symbol>

  <symbol id="hero-star-stroke-yellow-red" viewBox="0 0 135 540" fill="none">
    <rect width="135" height="539.277" rx="67.5" fill="url(#paint0_linear_758_88)"/>
    <defs>
    <linearGradient id="paint0_linear_758_88" x1="67.5" y1="0" x2="67.5" y2="539.277" gradientUnits="userSpaceOnUse">
    <stop stop-color="#FDBD2C"/>
    <stop offset="1" stop-color="#ED2124"/>
    </linearGradient>
    </defs>
  </symbol>

  <symbol id="hero-star-stroke-pink-red" viewBox="0 0 135 540" fill="none">
    <rect width="135" height="539.277" rx="67.5" fill="url(#paint0_linear_758_87)"/>
    <defs>
    <linearGradient id="paint0_linear_758_87" x1="67.5" y1="0" x2="67.5" y2="539.277" gradientUnits="userSpaceOnUse">
    <stop stop-color="#ED2B94"/>
    <stop offset="1" stop-color="#ED1C24"/>
    </linearGradient>
    </defs>
  </symbol>

  <symbol id="hero-star-stroke-pink-blue" viewBox="0 0 135 540" fill="none">
    <rect width="135" height="540" rx="67.5" fill="url(#paint0_linear_758_85)"/>
    <defs>
    <linearGradient id="paint0_linear_758_85" x1="67.5" y1="0" x2="67.5" y2="540" gradientUnits="userSpaceOnUse">
    <stop stop-color="#ED2B94"/>
    <stop offset="1" stop-color="#00A1E4"/>
    </linearGradient>
    </defs>
  </symbol>

  <symbol id="hero-star-stroke-green-blue" viewBox="0 0 135 540" fill="none">
    <rect width="135" height="539.277" rx="67.5" fill="url(#paint0_linear_758_86)"/>
    <defs>
    <linearGradient id="paint0_linear_758_86" x1="67.5" y1="0" x2="67.5" y2="539.277" gradientUnits="userSpaceOnUse">
    <stop stop-color="#00A1E4"/>
    <stop offset="1" stop-color="#00AD8E"/>
    </linearGradient>
    </defs>
  </symbol>

  <symbol id="hero-star-stroke-yellow-green" viewBox="0 0 135 540" fill="none">
    <rect width="135" height="539.277" rx="67.5" fill="url(#paint0_linear_758_84)"/>
    <defs>
    <linearGradient id="paint0_linear_758_84" x1="67.5" y1="0" x2="67.5" y2="539.277" gradientUnits="userSpaceOnUse">
    <stop stop-color="#FDBD2C"/>
    <stop offset="1" stop-color="#00AD8E"/>
    </linearGradient>
    </defs>
  </symbol>


  <!--Stars-->
  <symbol id="star-blue-green" viewBox="0 0 96 93">
    <path d="M37.2499 7.77893C40.4692 -2.59294 55.1496 -2.59295 58.3689 7.77892L64.3202 26.9523L84.3942 26.6874C95.2533 26.5441 99.7898 40.5059 90.9204 46.7728L74.5244 58.3577L80.9796 77.3673C84.4715 87.6506 72.5949 96.2795 63.8939 89.7808L47.8094 77.7673L31.7249 89.7808C23.024 96.2795 11.1473 87.6507 14.6392 77.3673L21.0944 58.3577L4.6985 46.7728C-4.17091 40.5059 0.365559 26.5441 11.2246 26.6874L31.2986 26.9523L37.2499 7.77893Z" fill="url(#paint0_linear_6007_76)"/>
    <defs>
    <linearGradient id="paint0_linear_6007_76" x1="20.6067" y1="7.75897" x2="90.6067" y2="91.759" gradientUnits="userSpaceOnUse">
    <stop stop-color="#00A1E4"/>
    <stop offset="1" stop-color="#00AD8E"/>
    </linearGradient>
    </defs>
  </symbol>

  <symbol id="star-pink-red" viewBox="0 0 96 93">
    <path d="M37.2499 7.77893C40.4692 -2.59294 55.1496 -2.59295 58.3689 7.77892L64.3202 26.9523L84.3942 26.6874C95.2533 26.5441 99.7898 40.5059 90.9204 46.7728L74.5244 58.3577L80.9796 77.3673C84.4715 87.6506 72.5949 96.2795 63.8939 89.7808L47.8094 77.7673L31.7249 89.7808C23.024 96.2795 11.1473 87.6507 14.6392 77.3673L21.0944 58.3577L4.6985 46.7728C-4.17091 40.5059 0.365559 26.5441 11.2246 26.6874L31.2986 26.9523L37.2499 7.77893Z" fill="url(#paint0_linear_6007_78)"/>
    <defs>
    <linearGradient id="paint0_linear_6007_78" x1="18.6067" y1="10.759" x2="89.6067" y2="93.759" gradientUnits="userSpaceOnUse">
    <stop stop-color="#E40085"/>
    <stop offset="1" stop-color="#ED2124"/>
    </linearGradient>
    </defs>
  </symbol>

  <symbol id="star-yellow-red" viewBox="0 0 96 93">
    <path d="M37.2499 7.77893C40.4692 -2.59294 55.1496 -2.59295 58.3689 7.77892L64.3202 26.9523L84.3942 26.6874C95.2532 26.5441 99.7897 40.5059 90.9203 46.7728L74.5244 58.3577L80.9796 77.3673C84.4715 87.6506 72.5948 96.2795 63.8939 89.7808L47.8094 77.7673L31.7249 89.7808C23.024 96.2795 11.1473 87.6507 14.6392 77.3673L21.0944 58.3577L4.69847 46.7728C-4.17094 40.5059 0.365528 26.5441 11.2246 26.6874L31.2986 26.9523L37.2499 7.77893Z" fill="url(#paint0_linear_6007_79)"/>
    <defs>
    <linearGradient id="paint0_linear_6007_79" x1="15.6066" y1="0.758976" x2="89.6066" y2="92.759" gradientUnits="userSpaceOnUse">
    <stop stop-color="#FDBD2C"/>
    <stop offset="1" stop-color="#ED2124"/>
    </linearGradient>
    </defs>
  </symbol>

  <symbol id="star-blue-pink" viewBox="0 0 96 93">
    <path d="M37.2499 7.77893C40.4692 -2.59294 55.1496 -2.59295 58.3689 7.77892L64.3202 26.9523L84.3942 26.6874C95.2532 26.5441 99.7897 40.5059 90.9203 46.7728L74.5244 58.3577L80.9796 77.3673C84.4715 87.6506 72.5948 96.2795 63.8939 89.7808L47.8094 77.7673L31.7249 89.7808C23.024 96.2795 11.1473 87.6507 14.6392 77.3673L21.0944 58.3577L4.69847 46.7728C-4.17094 40.5059 0.365528 26.5441 11.2246 26.6874L31.2986 26.9523L37.2499 7.77893Z" fill="url(#paint0_linear_6007_80)"/>
    <defs>
    <linearGradient id="paint0_linear_6007_80" x1="18.6066" y1="9.75897" x2="89.6066" y2="88.759" gradientUnits="userSpaceOnUse">
    <stop stop-color="#00A1E4"/>
    <stop offset="1" stop-color="#E40085"/>
    </linearGradient>
    </defs>
  </symbol>

  <!--Career Icons-->
  <symbol id="briefcase-time" viewBox="0 0 50 40" fill="none">
    <path d="M12.5 3.75V7.5H27.5V3.75C27.5 3.0625 26.9375 2.5 26.25 2.5H13.75C13.0625 2.5 12.5 3.0625 12.5 3.75ZM10 7.5V3.75C10 1.67969 11.6797 0 13.75 0H26.25C28.3203 0 30 1.67969 30 3.75V7.5H35C37.7578 7.5 40 9.74219 40 12.5V15.0547C39.5859 15.0156 39.1719 15 38.75 15C38.3281 15 37.9141 15.0156 37.5 15.0547V12.5C37.5 11.1172 36.3828 10 35 10H28.75H11.25H5C3.61719 10 2.5 11.1172 2.5 12.5V20H13.75H16.25H27.5H28.1406C27.5078 20.7656 26.9531 21.6094 26.5 22.5H16.25V26.25H25.2266C25.0781 27.0625 25 27.8984 25 28.75H16.25C14.8672 28.75 13.75 27.6328 13.75 26.25V22.5H2.5V32.5C2.5 33.8828 3.61719 35 5 35H26.5C26.9609 35.8906 27.5078 36.7344 28.1406 37.5H5C2.24219 37.5 0 35.2578 0 32.5V12.5C0 9.74219 2.24219 7.5 5 7.5H10ZM38.75 37.5C41.0706 37.5 43.2962 36.5781 44.9372 34.9372C46.5781 33.2962 47.5 31.0706 47.5 28.75C47.5 26.4294 46.5781 24.2038 44.9372 22.5628C43.2962 20.9219 41.0706 20 38.75 20C36.4294 20 34.2038 20.9219 32.5628 22.5628C30.9219 24.2038 30 26.4294 30 28.75C30 31.0706 30.9219 33.2962 32.5628 34.9372C34.2038 36.5781 36.4294 37.5 38.75 37.5ZM38.75 17.5C41.7337 17.5 44.5952 18.6853 46.7049 20.795C48.8147 22.9048 50 25.7663 50 28.75C50 31.7337 48.8147 34.5952 46.7049 36.7049C44.5952 38.8147 41.7337 40 38.75 40C35.7663 40 32.9048 38.8147 30.795 36.7049C28.6853 34.5952 27.5 31.7337 27.5 28.75C27.5 25.7663 28.6853 22.9048 30.795 20.795C32.9048 18.6853 35.7663 17.5 38.75 17.5ZM38.75 22.5C39.4375 22.5 40 23.0625 40 23.75V27.5H42.5C43.1875 27.5 43.75 28.0625 43.75 28.75C43.75 29.4375 43.1875 30 42.5 30H38.75C38.0625 30 37.5 29.4375 37.5 28.75V23.75C37.5 23.0625 38.0625 22.5 38.75 22.5Z" fill="url(#paint0_linear_6008_114)"/>
    <defs>
    <linearGradient id="paint0_linear_6008_114" x1="25" y1="0" x2="25" y2="40" gradientUnits="userSpaceOnUse">
    <stop stop-color="#00A1E4"/>
    <stop offset="1" stop-color="#00AD8E"/>
    </linearGradient>
    </defs>
  </symbol>
  <symbol id="house-laptop" viewBox="0 0 50 40" fill="none">
    <path d="M17.9417 0.298872C18.4104 -0.099624 19.0978 -0.099624 19.5665 0.298872L37.0642 15.3011C37.5876 15.7543 37.6501 16.5434 37.197 17.067C36.9548 17.3561 36.6033 17.5045 36.2518 17.5045H36.2362C35.9472 17.5045 35.666 17.4029 35.4316 17.1998L32.5023 14.676V17.4967H30.0026V12.535L18.7541 2.893L7.5056 12.535V27.4982C7.5056 28.8812 8.62264 29.9985 10.0053 29.9985H21.2538V32.4989H10.0053C7.24782 32.4989 5.00593 30.2564 5.00593 27.4982V14.676L2.06881 17.192C1.54544 17.6452 0.756485 17.5827 0.30342 17.0591C-0.149645 16.5356 -0.0871535 15.7464 0.436215 15.2933L17.9339 0.291058L17.9417 0.298872ZM27.503 19.9971H42.501C44.571 19.9971 46.2505 21.677 46.2505 23.7476V33.7491C46.2505 34.4367 45.6881 34.9993 45.0007 34.9993C44.3132 34.9993 43.7508 34.4367 43.7508 33.7491V23.7476C43.7508 23.06 43.1884 22.4974 42.501 22.4974H27.503C26.8156 22.4974 26.2531 23.06 26.2531 23.7476V33.7491C26.2531 34.4367 25.6907 34.9993 25.0033 34.9993C24.3159 34.9993 23.7535 34.4367 23.7535 33.7491V23.7476C23.7535 21.677 25.4329 19.9971 27.503 19.9971ZM21.2538 37.4996H48.7502C49.4376 37.4996 50 38.0622 50 38.7498C50 39.4374 49.4376 40 48.7502 40H21.2538C20.5664 40 20.004 39.4374 20.004 38.7498C20.004 38.0622 20.5664 37.4996 21.2538 37.4996ZM16.2544 13.7462H21.2538C22.6364 13.7462 23.7535 14.8635 23.7535 16.2465V17.4967C23.7535 18.1843 23.191 18.7469 22.5036 18.7469C21.8162 18.7469 21.2538 18.1843 21.2538 17.4967V16.2465H16.2544V21.2473H20.004C20.6914 21.2473 21.2538 21.8098 21.2538 22.4974C21.2538 23.185 20.6914 23.7476 20.004 23.7476H16.2544C14.8718 23.7476 13.7548 22.6303 13.7548 21.2473V16.2465C13.7548 14.8635 14.8718 13.7462 16.2544 13.7462Z" fill="url(#paint0_linear_6008_113)"/>
    <defs>
    <linearGradient id="paint0_linear_6008_113" x1="25" y1="0" x2="25" y2="40" gradientUnits="userSpaceOnUse">
    <stop stop-color="#E40085"/>
    <stop offset="1" stop-color="#ED2124"/>
    </linearGradient>
    </defs>
  </symbol>
  <symbol id="headside-gear" viewBox="0 0 40 40" fill="none">
    <path d="M2.5 17.5C2.5 9.21875 9.21875 2.5 17.5 2.5H18.75C23.9141 2.5 28.6797 5.625 30.7656 10.0703C31.0156 10.6094 31.2734 11.1797 31.5391 11.7656C32.0234 12.8516 32.5312 13.9922 33.0859 15.0469C33.9531 16.7109 35.0234 18.3516 36.5234 19.6875L36.7734 19.9062C37.2422 20.3203 37.5156 20.9219 37.5156 21.5547C37.5156 22.7734 36.5312 23.7578 35.3125 23.7578L33.75 23.75C33.0625 23.75 32.5 24.3125 32.5 25V30C32.5 31.3828 31.3828 32.5 30 32.5H23.75C23.0625 32.5 22.5 33.0625 22.5 33.75V38.75C22.5 39.4375 23.0625 40 23.75 40C24.4375 40 25 39.4375 25 38.75V35H30C32.7578 35 35 32.7578 35 30V26.25H35.2969C37.8906 26.25 40 24.1484 40 21.5469C40 20.2031 39.4219 18.9219 38.4219 18.0312L38.1719 17.8125C36.9922 16.7578 36.0938 15.4219 35.2891 13.8828C34.7656 12.8906 34.3281 11.8906 33.8672 10.8594C33.5938 10.25 33.3203 9.63281 33.0234 9C30.5313 3.69531 24.8906 0 18.75 0H17.5C7.83594 0 0 7.83594 0 17.5C0 21.6328 1.4375 25.4375 3.83594 28.4375C4.57031 29.3438 5 30.3594 5 31.3594V38.75C5 39.4375 5.5625 40 6.25 40C6.9375 40 7.5 39.4375 7.5 38.75V31.3594C7.5 29.6328 6.75781 28.0859 5.78906 26.875C3.72656 24.3047 2.5 21.0469 2.5 17.5ZM13.75 10V10.0547C13.75 10.1328 13.6875 10.3203 13.4297 10.4688C13.1797 10.6094 13 10.5781 12.9219 10.5312L12.875 10.5078C11.6797 9.82031 10.1484 10.2266 9.46094 11.4219L8.21094 13.5859C7.52344 14.7812 7.92969 16.3125 9.125 17L9.17188 17.0234C9.24219 17.0625 9.375 17.2109 9.375 17.5C9.375 17.7891 9.25 17.9375 9.17188 17.9766L9.125 18C7.92969 18.6875 7.52344 20.2188 8.21094 21.4141L9.46094 23.5781C10.1484 24.7734 11.6797 25.1875 12.875 24.4922L12.9219 24.4688C12.9922 24.4297 13.1797 24.3906 13.4297 24.5312C13.6875 24.6797 13.75 24.8672 13.75 24.9453V25C13.75 26.3828 14.8672 27.5 16.25 27.5H18.75C20.1328 27.5 21.25 26.3828 21.25 25V24.9453C21.25 24.8672 21.3125 24.6797 21.5703 24.5312C21.8203 24.3906 22 24.4219 22.0781 24.4688L22.125 24.4922C23.3203 25.1797 24.8516 24.7734 25.5391 23.5781L26.7891 21.4141C27.4766 20.2188 27.0703 18.6875 25.875 18L25.8281 17.9766C25.7578 17.9375 25.625 17.7891 25.625 17.5C25.625 17.2109 25.75 17.0625 25.8281 17.0234L25.875 17C27.0703 16.3125 27.4844 14.7812 26.7891 13.5859L25.5391 11.4219C24.8516 10.2266 23.3203 9.82031 22.125 10.5078L22.0781 10.5312C22.0078 10.5703 21.8203 10.6094 21.5703 10.4688C21.3125 10.3203 21.25 10.1328 21.25 10.0547V10C21.25 8.61719 20.1328 7.5 18.75 7.5H16.25C14.8672 7.5 13.75 8.61719 13.75 10ZM18.75 10V10.0547C18.75 11.2344 19.4844 12.1484 20.3125 12.6328C21.1484 13.1172 22.3047 13.2812 23.3203 12.6953L23.3672 12.6719L24.6172 14.8359L24.5703 14.8594C23.5547 15.4453 23.125 16.5312 23.125 17.5C23.125 18.4688 23.5547 19.5547 24.5703 20.1406L24.6172 20.1641L23.3672 22.3281L23.3203 22.3047C22.3047 21.7188 21.1484 21.8828 20.3125 22.3672C19.4844 22.8516 18.75 23.7656 18.75 24.9453V25H16.25V24.9453C16.25 23.7656 15.5156 22.8516 14.6875 22.3672C13.8516 21.8828 12.6953 21.7188 11.6797 22.3047L11.6328 22.3281L10.3828 20.1641L10.4297 20.1406C11.4453 19.5547 11.8828 18.4688 11.8828 17.5C11.8828 16.5312 11.4531 15.4453 10.4297 14.8594L10.3828 14.8359L11.6328 12.6719L11.6797 12.6953C12.6953 13.2812 13.8516 13.1172 14.6875 12.6328C15.5156 12.1484 16.25 11.2344 16.25 10.0547V10H18.75ZM19.375 17.5C19.375 17.0027 19.1775 16.5258 18.8258 16.1742C18.4742 15.8225 17.9973 15.625 17.5 15.625C17.0027 15.625 16.5258 15.8225 16.1742 16.1742C15.8225 16.5258 15.625 17.0027 15.625 17.5C15.625 17.9973 15.8225 18.4742 16.1742 18.8258C16.5258 19.1775 17.0027 19.375 17.5 19.375C17.9973 19.375 18.4742 19.1775 18.8258 18.8258C19.1775 18.4742 19.375 17.9973 19.375 17.5Z" fill="url(#paint0_linear_6008_112)"/>
    <defs>
    <linearGradient id="paint0_linear_6008_112" x1="20" y1="0" x2="20" y2="40" gradientUnits="userSpaceOnUse">
    <stop stop-color="#FDBD2C"/>
    <stop offset="1" stop-color="#ED2124"/>
    </linearGradient>
    </defs>
  </symbol>
  <symbol id="hand-holding-heart" viewBox="0 0 46 40" fill="none">
    <path d="M13.0892 1.76894C15.3094 -0.462718 18.8312 -0.581423 21.1872 1.40491C21.6503 1.79269 22.0656 2.22794 22.4889 2.66319C22.6566 2.83729 22.8243 3.01931 23 3.1855C23.1677 3.01139 23.3434 2.83729 23.5111 2.66319C23.9264 2.22794 24.3497 1.79269 24.8128 1.40491C27.1688 -0.581423 30.6906 -0.462718 32.9108 1.76894C35.2587 4.12723 35.2587 7.95745 32.9108 10.3157L24.7969 18.4827C24.3017 18.9812 23.6549 19.2266 23 19.2266C22.3451 19.2266 21.6983 18.9812 21.2031 18.4827L13.0892 10.3157C10.7413 7.95745 10.7413 4.12723 13.0892 1.76894ZM19.7656 3.54953C18.424 2.19628 16.2517 2.19628 14.9101 3.54953C13.5444 4.92651 13.5444 7.16608 14.9101 8.54307L23 16.6783L31.0899 8.53515C32.4556 7.15817 32.4556 4.91859 31.0899 3.54161C29.7483 2.18837 27.576 2.18837 26.2344 3.54161L23.9104 5.88407C23.4073 6.39054 22.5927 6.39054 22.0896 5.88407L19.7656 3.54953ZM12.059 24.6C13.1052 23.9035 14.3431 23.5395 15.6049 23.5395H27.4722C29.9399 23.5395 31.9444 25.5259 31.9444 27.9712C31.9444 28.6518 31.7927 29.2928 31.5132 29.8705H31.9604L39.5233 25.4072C40.1861 25.0194 40.9448 24.8057 41.7194 24.8057H41.8233C44.1313 24.8057 46 26.6575 46 28.9446C46 30.3453 45.2812 31.6511 44.0993 32.4108L34.5479 38.5676C33.0944 39.5014 31.4014 40 29.6764 40H1.27778C0.575 40 0 39.4302 0 38.7338C0 38.0374 0.575 37.4676 1.27778 37.4676H29.6684C30.9062 37.4676 32.1122 37.1115 33.1503 36.4468L42.7017 30.2899C43.1649 29.9971 43.4365 29.4827 43.4365 28.9446C43.4365 28.0582 42.7097 27.3381 41.8153 27.3381H41.7115C41.4 27.3381 41.0965 27.4251 40.825 27.5755L32.9587 32.2208C32.759 32.3395 32.5354 32.4029 32.3038 32.4029H27.4722H25.5556H20.4444C19.7417 32.4029 19.1667 31.8331 19.1667 31.1367C19.1667 30.4403 19.7417 29.8705 20.4444 29.8705H25.5556H27.4722C28.5344 29.8705 29.3889 29.0237 29.3889 27.9712C29.3889 26.9187 28.5344 26.0719 27.4722 26.0719H15.6049C14.8462 26.0719 14.1115 26.2935 13.4806 26.7129L7.09965 30.923C6.89201 31.0654 6.64444 31.1367 6.38889 31.1367H1.27778C0.575 31.1367 0 30.5669 0 29.8705C0 29.1741 0.575 28.6043 1.27778 28.6043H6.00556L12.059 24.6Z" fill="url(#paint0_linear_6008_115)"/>
    <defs>
    <linearGradient id="paint0_linear_6008_115" x1="23" y1="0" x2="23" y2="40" gradientUnits="userSpaceOnUse">
    <stop stop-color="#00A1E4"/>
    <stop offset="1" stop-color="#00AD8E"/>
    </linearGradient>
    </defs>
  </symbol>
  <symbol id="piggy-bank" viewBox="0 0 45 40" fill="none">
    <path d="M21.25 2.5C23.9688 2.5 26.2891 4.23438 27.1484 6.66406C27.375 7.3125 28.0938 7.65625 28.7422 7.42969C29.3906 7.20312 29.7344 6.48438 29.5078 5.83594C28.3047 2.4375 25.0625 0 21.25 0C16.9141 0 13.3125 3.15625 12.6172 7.29688C12.5 7.97656 12.9609 8.625 13.6406 8.73438C14.3203 8.84375 14.9688 8.39062 15.0781 7.71094C15.5859 4.75 18.1562 2.5 21.25 2.5ZM4.3125 14.8672C4.92969 14.5547 5.17969 13.8047 4.875 13.1875C4.57031 12.5703 3.8125 12.3203 3.19531 12.625L2.82812 12.8125C1.09375 13.6797 0 15.4531 0 17.3906C0 20.1797 2.22656 22.4453 5 22.5C5 26.5938 6.96875 30.2188 10 32.5V36.25C10 38.3203 11.6797 40 13.75 40H16.25C18.3203 40 20 38.3203 20 36.25V35H25V36.25C25 38.3203 26.6797 40 28.75 40H31.25C33.3203 40 35 38.3203 35 36.25V33.9609C36.9922 33.0938 38.7109 31.7188 40 30H42.5C43.8828 30 45 28.8828 45 27.5V20C45 18.6172 43.8828 17.5 42.5 17.5H41.4609C40.625 15.5781 39.3203 13.9141 37.6875 12.6406L38.25 10.6875C38.7031 9.08594 37.5 7.5 35.8438 7.5H35.625C33.2422 7.5 31.0781 8.45312 29.5 10H17.5C11.4531 10 6.40625 14.2969 5.25 20H5.10938C3.67188 20 2.5 18.8281 2.5 17.3906C2.5 16.3984 3.0625 15.5 3.94531 15.0547L4.3125 14.875V14.8672ZM33.125 22.5C33.6223 22.5 34.0992 22.3025 34.4508 21.9508C34.8025 21.5992 35 21.1223 35 20.625C35 20.1277 34.8025 19.6508 34.4508 19.2992C34.0992 18.9475 33.6223 18.75 33.125 18.75C32.6277 18.75 32.1508 18.9475 31.7992 19.2992C31.4475 19.6508 31.25 20.1277 31.25 20.625C31.25 21.1223 31.4475 21.5992 31.7992 21.9508C32.1508 22.3025 32.6277 22.5 33.125 22.5ZM30.9688 12.0859C32.1094 10.8047 33.7734 10 35.625 10H35.8438L35.0469 12.7969C34.8984 13.3203 35.1016 13.875 35.5547 14.1797C37.3359 15.3672 38.7109 17.1172 39.4375 19.1641C39.6172 19.6641 40.0859 20 40.6172 20H42.5078V27.5H39.3672C38.9531 27.5 38.5625 27.7109 38.3281 28.0547C37.1406 29.8359 35.3906 31.2109 33.3438 31.9297C32.8359 32.1094 32.5 32.5781 32.5 33.1094V36.25C32.5 36.9375 31.9375 37.5 31.25 37.5H28.75C28.0625 37.5 27.5 36.9375 27.5 36.25V33.75C27.5 33.0625 26.9375 32.5 26.25 32.5H18.75C18.0625 32.5 17.5 33.0625 17.5 33.75V36.25C17.5 36.9375 16.9375 37.5 16.25 37.5H13.75C13.0625 37.5 12.5 36.9375 12.5 36.25V31.8594C12.5 31.4453 12.2891 31.0547 11.9453 30.8203C9.26562 29.0234 7.5 25.9688 7.5 22.5C7.5 16.9766 11.9766 12.5 17.5 12.5H30H30.0312C30.3906 12.5 30.7266 12.3516 30.9609 12.0859H30.9688Z" fill="url(#paint0_linear_6008_120)"/>
    <defs>
    <linearGradient id="paint0_linear_6008_120" x1="22.5" y1="0" x2="22.5" y2="40" gradientUnits="userSpaceOnUse">
    <stop stop-color="#00A1E4"/>
    <stop offset="1" stop-color="#E40085"/>
    </linearGradient>
    </defs>
  </symbol>
  <symbol id="party-horn" viewBox="0 0 40 40" fill="none">
    <path d="M3.17359 1.90509C3.17359 1.39992 3.37423 0.915439 3.73137 0.55823C4.08852 0.201022 4.57291 0.000344145 5.07798 0.000344145C5.58306 0.000344145 6.06745 0.201022 6.42459 0.55823C6.78173 0.915439 6.98237 1.39992 6.98237 1.90509C6.98237 2.41026 6.78173 2.89474 6.42459 3.25194C6.06745 3.60915 5.58306 3.80983 5.07798 3.80983C4.57291 3.80983 4.08852 3.60915 3.73137 3.25194C3.37423 2.89474 3.17359 2.41026 3.17359 1.90509ZM36.183 12.0637C36.183 11.5585 36.3837 11.0741 36.7408 10.7169C37.098 10.3596 37.5824 10.159 38.0874 10.159C38.5925 10.159 39.0769 10.3596 39.434 10.7169C39.7912 11.0741 39.9918 11.5585 39.9918 12.0637C39.9918 12.5689 39.7912 13.0534 39.434 13.4106C39.0769 13.7678 38.5925 13.9685 38.0874 13.9685C37.5824 13.9685 37.098 13.7678 36.7408 13.4106C36.3837 13.0534 36.183 12.5689 36.183 12.0637ZM38.0874 33.0159C38.5925 33.0159 39.0769 33.2166 39.434 33.5738C39.7912 33.931 39.9918 34.4155 39.9918 34.9206C39.9918 35.4258 39.7912 35.9103 39.434 36.2675C39.0769 36.6247 38.5925 36.8254 38.0874 36.8254C37.5824 36.8254 37.098 36.6247 36.7408 36.2675C36.3837 35.9103 36.183 35.4258 36.183 34.9206C36.183 34.4155 36.3837 33.931 36.7408 33.5738C37.098 33.2166 37.5824 33.0159 38.0874 33.0159ZM13.7033 11.0558C13.2113 10.5637 13.2113 9.75421 13.7033 9.26216L14.3619 8.60343C15.7902 7.17488 16.6868 5.30188 16.909 3.3019L17.1471 1.12732C17.2264 0.428911 17.8533 -0.0710837 18.5516 0.0082806C19.2498 0.0876449 19.7497 0.714623 19.6704 1.41303L19.4323 3.58761C19.1467 6.16695 17.9882 8.57169 16.1552 10.405L15.4966 11.0637C15.0046 11.5558 14.1953 11.5558 13.7033 11.0637V11.0558ZM28.9384 24.5001L29.597 23.8414C31.43 22.0081 33.8343 20.8493 36.4132 20.5636L38.5873 20.3255C39.2856 20.2462 39.9125 20.7541 39.9918 21.4446C40.0712 22.135 39.5633 22.77 38.873 22.8493L36.6988 23.0874C34.6913 23.3096 32.8266 24.2065 31.3983 25.635L30.7397 26.2937C30.2477 26.7858 29.4383 26.7858 28.9464 26.2937C28.4544 25.8017 28.4544 24.9922 28.9464 24.5001H28.9384ZM39.6903 0.452721C40.1426 0.984461 40.0791 1.78604 39.5395 2.23842L38.746 2.91301C37.6907 3.80189 36.3497 4.27808 34.969 4.2384C33.3027 4.19078 31.9061 5.47648 31.8109 7.13519L31.668 9.51612C31.4935 12.5478 28.9384 14.8891 25.9073 14.8018C25.1534 14.778 24.4155 15.0399 23.8362 15.5319L23.0427 16.2065C22.5111 16.6589 21.7097 16.5954 21.2574 16.0557C20.8051 15.5161 20.8686 14.7224 21.4081 14.27L22.2016 13.5954C23.257 12.7066 24.6059 12.2304 25.9866 12.2701C27.653 12.3177 29.0495 11.032 29.1447 9.37327L29.2876 6.99234C29.4621 3.96062 32.0172 1.61938 35.0483 1.70668C35.8022 1.73049 36.5401 1.46858 37.1194 0.976525L37.9129 0.301928C38.4445 -0.150448 39.2459 -0.0869566 39.7062 0.452721H39.6903ZM2.55466 37.4285L2.5626 37.4365L2.57053 37.4444L8.61698 35.1746L4.81613 31.381L2.55466 37.4285ZM16.0124 32.4127L7.58543 23.9922L5.79213 28.7858C5.85561 28.8334 5.91909 28.881 5.97463 28.9366L11.053 34.0159C11.1086 34.0714 11.1641 34.1349 11.2117 34.2064L16.0124 32.4048V32.4127ZM18.623 31.4286L22.8523 29.8413C22.8523 29.8334 22.8523 29.8334 22.8602 29.8254C22.8682 29.8175 22.8602 29.8175 22.8602 29.8096L10.1802 17.143C10.1722 17.143 10.1722 17.143 10.1643 17.143C10.1564 17.143 10.1564 17.143 10.1484 17.151L8.56143 21.3811L18.623 31.4286ZM7.7838 16.2383C8.4186 14.5399 10.6721 14.0478 11.9576 15.3335L24.6694 28.0397C25.9549 29.3254 25.4629 31.5794 23.7648 32.2143L3.43544 39.8412C1.43583 40.5872 -0.587584 38.5714 0.158303 36.5714L7.7838 16.2383Z" fill="url(#paint0_linear_6008_116)"/>
    <defs>
    <linearGradient id="paint0_linear_6008_116" x1="20" y1="0" x2="20" y2="40" gradientUnits="userSpaceOnUse">
    <stop stop-color="#E40085"/>
    <stop offset="1" stop-color="#ED2124"/>
    </linearGradient>
    </defs>
  </symbol>

  <!--Parents Icons-->
  <symbol id="circle-arrow-right" viewBox="0 0 512 512"><!--!Font Awesome Pro v7.1.0 by @fontawesome - https://fontawesome.com License - https://fontawesome.com/license (Commercial License) Copyright 2025 Fonticons, Inc.--><path d="M256 32a224 224 0 1 1 0 448 224 224 0 1 1 0-448zm0 480a256 256 0 1 0 0-512 256 256 0 1 0 0 512zm91.3-244.7c6.2-6.2 6.2-16.4 0-22.6l-72-72c-6.2-6.2-16.4-6.2-22.6 0s-6.2 16.4 0 22.6L297.4 240 176 240c-8.8 0-16 7.2-16 16s7.2 16 16 16l121.4 0-44.7 44.7c-6.2 6.2-6.2 16.4 0 22.6s16.4 6.2 22.6 0l72-72z"/></symbol>
  <symbol id="arrow-up-right-from-square" viewBox="0 0 512 512"><!--!Font Awesome Pro v7.1.0 by @fontawesome - https://fontawesome.com License - https://fontawesome.com/license (Commercial License) Copyright 2025 Fonticons, Inc.--><path d="M304 0c-8.8 0-16 7.2-16 16s7.2 16 16 16l153.4 0-260.7 260.7c-6.2 6.2-6.2 16.4 0 22.6s16.4 6.2 22.6 0L480 54.6 480 208c0 8.8 7.2 16 16 16s16-7.2 16-16l0-192c0-8.8-7.2-16-16-16L304 0zM80 96C35.8 96 0 131.8 0 176L0 432c0 44.2 35.8 80 80 80l256 0c44.2 0 80-35.8 80-80l0-96c0-8.8-7.2-16-16-16s-16 7.2-16 16l0 96c0 26.5-21.5 48-48 48L80 480c-26.5 0-48-21.5-48-48l0-256c0-26.5 21.5-48 48-48l96 0c8.8 0 16-7.2 16-16s-7.2-16-16-16L80 96z"/></symbol>
  <symbol id="file-pdf" viewBox="0 0 576 512"><!--!Font Awesome Pro v7.1.0 by @fontawesome - https://fontawesome.com License - https://fontawesome.com/license (Commercial License) Copyright 2025 Fonticons, Inc.--><path d="M224 32L96 32C78.3 32 64 46.3 64 64l0 384c0 17.7 14.3 32 32 32l80 0 0 32-80 0c-35.3 0-64-28.7-64-64L32 64C32 28.7 60.7 0 96 0L229.5 0c17 0 33.3 6.7 45.3 18.7L397.3 141.3c12 12 18.7 28.3 18.7 45.3l0 149.5-32 0 0-144-96 0c-35.3 0-64-28.7-64-64l0-96zM370.7 160L256 45.3 256 128c0 17.7 14.3 32 32 32l82.7 0zM240 384l32 0c30.9 0 56 25.1 56 56s-25.1 56-56 56l-16 0 0 32c0 8.8-7.2 16-16 16s-16-7.2-16-16l0-128c0-8.8 7.2-16 16-16zm32 80c13.3 0 24-10.7 24-24s-10.7-24-24-24l-16 0 0 48 16 0zm96-80l32 0c26.5 0 48 21.5 48 48l0 64c0 26.5-21.5 48-48 48l-32 0c-8.8 0-16-7.2-16-16l0-128c0-8.8 7.2-16 16-16zm32 128c8.8 0 16-7.2 16-16l0-64c0-8.8-7.2-16-16-16l-16 0 0 96 16 0zm80-112c0-8.8 7.2-16 16-16l48 0c8.8 0 16 7.2 16 16s-7.2 16-16 16l-32 0 0 32 32 0c8.8 0 16 7.2 16 16s-7.2 16-16 16l-32 0 0 48c0 8.8-7.2 16-16 16s-16-7.2-16-16l0-128z"/></symbol>
  <symbol id="cloud-question-mark-duotone" viewBox="0 0 576 512"><!--!Font Awesome Pro v7.1.0 by @fontawesome - https://fontawesome.com License - https://fontawesome.com/license (Commercial License) Copyright 2025 Fonticons, Inc.--><path opacity=".4" d="M32 336c0 61.9 50.1 112 112 112l304 0c53 0 96-43 96-96 0-41.8-26.8-77.5-64.2-90.6-4.3-1.5-7.8-4.8-9.5-9.1s-1.5-9 .5-13.1c5.9-11.8 9.2-25.1 9.2-39.2 0-48.6-39.4-88-88-88-13.6 0-26.4 3.1-37.9 8.5-7.2 3.5-15.9 1-20.3-5.7-20-30.6-54.6-50.8-93.8-50.8-61.9 0-112 50.1-112 112 0 10.6 1.5 20.9 4.2 30.5 1.2 4.3 .6 8.8-1.7 12.6s-6 6.5-10.3 7.4C69.8 237.4 32 282.3 32 336zm186.8-90.8c0-38.2 31-69.2 69.2-69.2s69.2 31 69.2 69.2c0 35.8-24.3 53.7-42.1 61.7-7.8 3.5-11.1 9.2-11.1 13.1 0 8.8-7.2 16-16 16s-16-7.2-16-16c0-20.8 15.3-35.7 30.1-42.3 12.2-5.4 23.2-14.7 23.2-32.5 0-20.6-16.7-37.2-37.2-37.2s-37.2 16.7-37.2 37.2c0 8.8-7.2 16-16 16s-16-7.2-16-16zM308 384a20 20 0 1 1 -40 0 20 20 0 1 1 40 0z"/><path d="M128 176c0-61.9 50.1-112 112-112 39.3 0 73.8 20.2 93.8 50.8 4.4 6.7 13.1 9.1 20.3 5.7 11.4-5.5 24.3-8.5 37.9-8.5 48.6 0 88 39.4 88 88 0 14.1-3.3 27.4-9.2 39.2-2 4.1-2.2 8.9-.5 13.1s5.2 7.6 9.5 9.1c37.4 13.1 64.2 48.8 64.2 90.6 0 53-43 96-96 96l-304 0c-61.9 0-112-50.1-112-112 0-53.7 37.8-98.6 88.2-109.5 4.3-.9 8.1-3.6 10.3-7.4s2.9-8.3 1.7-12.6c-2.7-9.7-4.2-19.9-4.2-30.5zM240 32c-79.5 0-144 64.5-144 144 0 8 .7 15.9 1.9 23.5-56.9 19.2-97.9 73-97.9 136.5 0 79.5 64.5 144 144 144l304 0c70.7 0 128-57.3 128-128 0-49.9-28.5-93-70.1-114.2 3.9-11.9 6.1-24.6 6.1-37.8 0-66.3-53.7-120-120-120-13.7 0-26.9 2.3-39.2 6.5-26.4-33.2-67.1-54.5-112.8-54.5zm48 176c20.6 0 37.2 16.7 37.2 37.2 0 17.8-11 27-23.2 32.5-14.7 6.6-30.1 21.5-30.1 42.3 0 8.8 7.2 16 16 16s16-7.2 16-16c0-3.8 3.4-9.6 11.1-13.1 17.8-8 42.1-25.9 42.1-61.7 0-38.2-31-69.2-69.2-69.2s-69.2 31-69.2 69.2c0 8.8 7.2 16 16 16s16-7.2 16-16c0-20.6 16.7-37.2 37.2-37.2zm20 176a20 20 0 1 0 -40 0 20 20 0 1 0 40 0z"/></symbol>
  <symbol id="message-lines" viewBox="0 32 512 520"><!--!Font Awesome Pro v7.1.0 by @fontawesome - https://fontawesome.com License - https://fontawesome.com/license (Commercial License) Copyright 2025 Fonticons, Inc.--><path d="M179.2 533.6l0 0 112-84c1.4-1 3.1-1.6 4.8-1.6l120 0c53 0 96-43 96-96l0-224c0-53-43-96-96-96L96 32C43 32 0 75 0 128L0 352c0 53 43 96 96 96l32 0 0 68c0 15.5 12.5 28 28 28 6.1 0 12-2 16.8-5.6l6.4-4.8zM160 448l0-8c0-13.3-10.7-24-24-24l-40 0c-35.3 0-64-28.7-64-64l0-224c0-35.3 28.7-64 64-64l320 0c35.3 0 64 28.7 64 64l0 224c0 35.3-28.7 64-64 64l-120 0c-8.7 0-17.1 2.8-24 8l-112 84 0-60zM144 192c-8.8 0-16 7.2-16 16s7.2 16 16 16l224 0c8.8 0 16-7.2 16-16s-7.2-16-16-16l-224 0zm0 96c-8.8 0-16 7.2-16 16s7.2 16 16 16l128 0c8.8 0 16-7.2 16-16s-7.2-16-16-16l-128 0z"/></symbol>
  <symbol id="cloud-check" viewBox="0 0 576 512"><!--!Font Awesome Pro v7.1.0 by @fontawesome - https://fontawesome.com License - https://fontawesome.com/license (Commercial License) Copyright 2025 Fonticons, Inc.--><path d="M240 32c45.7 0 86.5 21.3 112.8 54.5 12.3-4.2 25.5-6.5 39.2-6.5 66.3 0 120 53.7 120 120 0 13.2-2.1 25.9-6.1 37.8 41.6 21.1 70.1 64.3 70.1 114.2 0 70.7-57.3 128-128 128l-304 0C64.5 480 0 415.5 0 336 0 272.6 41 218.8 97.9 199.5 96.6 191.9 96 184 96 176 96 96.5 160.5 32 240 32zm0 32c-61.9 0-112 50.1-112 112 0 10.6 1.5 20.8 4.2 30.5 1.2 4.2 .6 8.8-1.7 12.6s-6 6.5-10.3 7.4C69.8 237.4 32 282.3 32 336 32 397.9 82.1 448 144 448l304 0c53 0 96-43 96-96 0-41.8-26.8-77.5-64.2-90.6-4.3-1.5-7.8-4.8-9.5-9.1s-1.5-9 .5-13.1c5.9-11.8 9.2-25.1 9.2-39.2 0-48.6-39.4-88-88-88-13.6 0-26.4 3.1-37.9 8.5-7.2 3.4-15.9 1-20.3-5.7-20-30.6-54.6-50.8-93.8-50.8zM355.1 202.2c5.2-7.1 15.2-8.7 22.3-3.5s8.7 15.2 3.5 22.3L275.3 366.2c-2.8 3.8-7.1 6.2-11.8 6.5s-9.3-1.4-12.6-4.8l-54.4-56.3c-6.1-6.4-6-16.5 .4-22.6s16.5-5.9 22.6 .4l41.2 42.6 94.4-129.8z"/></symbol>
  <symbol id="chart-user" viewBox="0 0 640 512"><!--!Font Awesome Pro v7.1.0 by @fontawesome - https://fontawesome.com License - https://fontawesome.com/license (Commercial License) Copyright 2025 Fonticons, Inc.--><path d="M192 64l352 0c17.7 0 32 14.3 32 32l0 288c0 17.7-14.3 32-32 32l-221.9 0c4.8 10.1 8.5 20.8 10.9 32l211 0c35.3 0 64-28.7 64-64l0-288c0-35.3-28.7-64-64-64L192 32c-35.3 0-64 28.7-64 64l0 49c5.2-.7 10.6-1 16-1s10.8 .3 16 1l0-49c0-17.7 14.3-32 32-32zm208 64c-8.8 0-16 7.2-16 16s7.2 16 16 16l57.4 0-105.4 105.4-36.7-36.7c-6.2-6.2-16.4-6.2-22.6 0s-6.2 16.4 0 22.6l48 48c3 3 7.1 4.7 11.3 4.7s8.3-1.7 11.3-4.7L480 182.6 480 240c0 8.8 7.2 16 16 16s16-7.2 16-16l0-96c0-8.8-7.2-16-16-16l-96 0zM144 224a48 48 0 1 1 0 96 48 48 0 1 1 0-96zm0 128a80 80 0 1 0 0-160 80 80 0 1 0 0 160zM0 480l0 16c0 8.8 7.2 16 16 16s16-7.2 16-16l0-16c0-35.3 28.7-64 64-64l96 0c35.3 0 64 28.7 64 64l0 16c0 8.8 7.2 16 16 16s16-7.2 16-16l0-16c0-53-43-96-96-96l-96 0c-53 0-96 43-96 96z"/></symbol>
  <symbol id="lock-keyhole" viewBox="0 0 448 512"><!--!Font Awesome Pro v6.7.2 by @fontawesome - https://fontawesome.com License - https://fontawesome.com/license (Commercial License) Copyright 2025 Fonticons, Inc.--><path d="M224 32c53 0 96 43 96 96l0 64-192 0 0-64c0-53 43-96 96-96zM96 128l0 64-16 0c-44.2 0-80 35.8-80 80L0 432c0 44.2 35.8 80 80 80l288 0c44.2 0 80-35.8 80-80l0-160c0-44.2-35.8-80-80-80l-16 0 0-64C352 57.3 294.7 0 224 0S96 57.3 96 128zM80 224l288 0c26.5 0 48 21.5 48 48l0 160c0 26.5-21.5 48-48 48L80 480c-26.5 0-48-21.5-48-48l0-160c0-26.5 21.5-48 48-48zm160 88c0-8.8-7.2-16-16-16s-16 7.2-16 16l0 80c0 8.8 7.2 16 16 16s16-7.2 16-16l0-80z"/></symbol>
  <symbol id="envelope-open-text" viewBox="0 0 512 512"><!--!Font Awesome Pro v6.7.2 by @fontawesome - https://fontawesome.com License - https://fontawesome.com/license (Commercial License) Copyright 2025 Fonticons, Inc.--><path d="M392 32L120 32c-13.3 0-24 10.7-24 24l0 166.5L77.5 207.2c-4.2-3.4-8.7-6.3-13.5-8.6L64 56C64 25.1 89.1 0 120 0L392 0c30.9 0 56 25.1 56 56l0 142.6c-4.8 2.3-9.3 5.2-13.4 8.6L416 222.5 416 56c0-13.3-10.7-24-24-24zM35 256c-1.6 0-3 1.3-3 3l0 189c0 17.7 14.3 32 32 32l384 0c17.7 0 32-14.3 32-32l0-189c0-1.6-1.3-3-3-3c-.7 0-1.3 .2-1.9 .7L294.5 405.1C283.7 414 270 418.9 256 418.9s-27.7-4.9-38.5-13.8L36.8 256.7c-.5-.4-1.2-.7-1.9-.7zM0 259c0-19.3 15.6-35 35-35c8.1 0 15.9 2.8 22.2 7.9L237.8 380.3c5.1 4.2 11.6 6.5 18.2 6.5s13.1-2.3 18.2-6.5L454.9 231.9c6.3-5.1 14.1-7.9 22.2-7.9c19.3 0 35 15.6 35 35l0 189c0 35.3-28.7 64-64 64L64 512c-35.3 0-64-28.7-64-64L0 259zM176 128l160 0c8.8 0 16 7.2 16 16s-7.2 16-16 16l-160 0c-8.8 0-16-7.2-16-16s7.2-16 16-16zm0 96l160 0c8.8 0 16 7.2 16 16s-7.2 16-16 16l-160 0c-8.8 0-16-7.2-16-16s7.2-16 16-16z"/></symbol>
  <symbol id="globe-pointer" viewBox="0 0 576 512"><!--!Font Awesome Pro v7.1.0 by @fontawesome - https://fontawesome.com License - https://fontawesome.com/license (Commercial License) Copyright 2025 Fonticons, Inc.--><path d="M320 480c15.5 0 39.4-15 61.5-59.9 19-38.6 32.1-91.3 34.2-148.1l-95.7 0 0-32 95.7 0C413.6 183.2 400.5 130.5 381.5 91.9 359.4 47 335.5 32 320 32s-39.4 15-61.5 59.9c-18.6 37.7-31.5 88.8-34 144l-122.6 36.1-5.3 0 .1 1.5-31.3 9.2C64.5 273.9 64 265 64 256 64 114.6 178.6 0 320 0S576 114.6 576 256 461.4 512 320 512c-22.8 0-45-3-66-8.6l17.7-60.2c18 27.1 35.9 36.7 48.3 36.7zM200.6 344.8l-.3-1.6 .9-.3-.6 1.9zM389.2 469.1c85-27.6 147.7-104.6 154.2-197.1l-95.7 0c-2.7 79.3-25.5 152.9-58.5 197.1zM447.7 240l95.7 0c-6.5-92.5-69.2-169.5-154.2-197.1 33 44.2 55.8 117.8 58.5 197.1zM250.8 42.9C165.8 70.5 103.1 147.5 96.6 240l95.7 0c2.7-79.3 25.5-152.9 58.5-197.1zM87.1 359.8L137.5 385c9.3 4.6 16.8 12.2 21.5 21.5l25.2 50.5 40.5-137.7-137.7 40.5zm156.8-79.5c12.1-3.6 23.4 7.7 19.9 19.9L203.5 505c-4.1 13.9-23.2 15.6-29.7 2.6l-38.3-76.5-92.2 92.2c-6.2 6.2-16.4 6.2-22.6 0s-6.2-16.4 0-22.6l92.2-92.2-76.5-38.3c-13-6.5-11.3-25.6 2.6-29.7l204.8-60.2z"/></symbol>
  <symbol id="mobile-screen" viewBox="0 0 384 512"><!--!Font Awesome Pro v7.1.0 by @fontawesome - https://fontawesome.com License - https://fontawesome.com/license (Commercial License) Copyright 2025 Fonticons, Inc.--><path d="M48 448c0 17.7 14.3 32 32 32l224 0c17.7 0 32-14.3 32-32l0-96-288 0 0 96zm0-128l288 0 0-256c0-17.7-14.3-32-32-32L80 32C62.3 32 48 46.3 48 64l0 256zM16 64C16 28.7 44.7 0 80 0L304 0c35.3 0 64 28.7 64 64l0 384c0 35.3-28.7 64-64 64L80 512c-35.3 0-64-28.7-64-64L16 64zM160 400l64 0c8.8 0 16 7.2 16 16s-7.2 16-16 16l-64 0c-8.8 0-16-7.2-16-16s7.2-16 16-16z"/></symbol>
  <symbol id="lightbulb-exclamation" viewBox="0 0 384 512"><!--!Font Awesome Pro v6.7.2 by @fontawesome - https://fontawesome.com License - https://fontawesome.com/license (Commercial License) Copyright 2026 Fonticons, Inc.--><path d="M336 176c0 30.6-9.5 58.8-25.7 82.1c-4.1 5.9-8.8 12.3-13.6 19c-12.7 17.5-27.1 37.2-38 57.1c-8.9 16.2-13.7 33.3-16.2 49.9l32.4 0c2.2-12 5.9-23.7 11.8-34.5c9.9-18 22.2-34.9 34.5-51.8c0 0 0 0 0 0s0 0 0 0s0 0 0 0c5.2-7.1 10.4-14.2 15.4-21.4c19.8-28.5 31.4-63 31.4-100.3C368 78.8 289.2 0 192 0S16 78.8 16 176c0 37.3 11.6 71.9 31.4 100.3c5 7.2 10.2 14.3 15.4 21.4c0 0 0 0 0 0s0 0 0 0s0 0 0 0c12.3 16.8 24.6 33.7 34.5 51.8c5.9 10.8 9.6 22.5 11.8 34.5l32.4 0c-2.5-16.6-7.3-33.7-16.2-49.9c-10.9-20-25.3-39.7-38-57.1c0 0 0 0 0 0c-4.9-6.7-9.5-13-13.6-19C57.5 234.8 48 206.6 48 176C48 96.5 112.5 32 192 32s144 64.5 144 144zM146.7 448l90.5 0c-6.6 18.6-24.4 32-45.3 32s-38.7-13.4-45.3-32zM112 432c0 44.2 35.8 80 80 80s80-35.8 80-80l0-5.3c0-5.9-4.8-10.7-10.7-10.7l-138.7 0c-5.9 0-10.7 4.8-10.7 10.7l0 5.3zM192 96c-8.8 0-16 7.2-16 16l0 128c0 8.8 7.2 16 16 16s16-7.2 16-16l0-128c0-8.8-7.2-16-16-16zm24 224a24 24 0 1 0 -48 0 24 24 0 1 0 48 0z"/></symbol>

  <!-- Order Now Icons -->
  <symbol id="rocket-launch" viewBox="0 0 512 512"><!--!Font Awesome Pro v7.1.0 by @fontawesome - https://fontawesome.com License - https://fontawesome.com/license (Commercial License) Copyright 2026 Fonticons, Inc.--><path d="M504.1 20.9c-1.3-6.3-6.2-11.3-12.6-12.6-44.3-8.9-111.2-14.2-175.5 19-37.4 19.3-72.8 51.1-102.1 100.7l-90.4 0c-16.9 0-32.5 8.8-41.2 23.3L29.5 239.5C16.7 260.9 32 288 56.9 288l103.5 0c35.3 0 64 28.7 64 64l0 103.5c0 24.9 27.1 40.2 48.5 27.4L361.1 430c14.5-8.7 23.3-24.3 23.3-41.2l0-90.4c49.6-29.3 81.4-64.7 100.7-102.1 33.2-64.3 27.8-131.2 19-175.5zM352.4 315.3l0 73.5c0 5.6-2.9 10.8-7.8 13.7l-88.2 52.9 0-103.5c0-1.1 0-2.3-.1-3.4 36.8-9.2 68.6-20.5 96.1-33.3zm-102.5 1.9c-9.7-25.1-29.7-45-54.8-54.8 30.6-121.4 83.2-179.7 135.6-206.8 50.4-26 103.6-24.7 143.9-18 6.8 40.3 8 93.5-18 143.9-27.1 52.4-85.4 105-206.8 135.6zm-86.1-61.2c-1.1 0-2.2-.1-3.4-.1l-103.5 0 52.9-88.2c2.9-4.8 8.1-7.8 13.7-7.8l73.5 0c-12.9 27.4-24.1 59.3-33.3 96.1zM368.4 168a24 24 0 1 1 0-48 24 24 0 1 1 0 48zm-56-24a56 56 0 1 0 112 0 56 56 0 1 0 -112 0zM130.2 450.9c-9.5 9.5-25.8 17.1-46.8 22.1-17.5 4.2-35.7 6-50.6 6.6 .7-14.9 2.5-33.1 6.6-50.6 5-21 12.5-37.3 22.1-46.8 19-19 49.7-19 68.7 0s19 49.7 0 68.7zm22.6 22.6c31.5-31.5 31.5-82.5 0-114s-82.5-31.5-114 0c-31.3 31.3-37.5 92-38.3 126.4-.4 14.6 11.2 26.2 25.9 25.9 34.5-.8 95.1-7 126.4-38.3z"/></symbol>
</svg>