<?xml version="1.0" encoding="utf-8"?>
<svg xmlns="http://www.w3.org/2000/svg">
  <symbol id="double-tick" viewBox="0 0 448 512">
    <!--!Font Awesome Pro v6.7.2 by @fontawesome - https://fontawesome.com License - https://fontawesome.com/license (Commercial License) Copyright 2025 Fonticons, Inc.--><path d="M331.3 75.3c6.2-6.2 6.2-16.4 0-22.6s-16.4-6.2-22.6 0L160 201.4 91.3 132.7c-6.2-6.2-16.4-6.2-22.6 0s-6.2 16.4 0 22.6l80 80c6.2 6.2 16.4 6.2 22.6 0l160-160zm112 112c6.2-6.2 6.2-16.4 0-22.6s-16.4-6.2-22.6 0L160 425.4 27.3 292.7c-6.2-6.2-16.4-6.2-22.6 0s-6.2 16.4 0 22.6l144 144c6.2 6.2 16.4 6.2 22.6 0l272-272z"/>
  </symbol>
  <symbol id="facebook" viewBox="0 0 640 640">
    <!--!Font Awesome Free v7.1.0 by @fontawesome - https://fontawesome.com License - https://fontawesome.com/license/free Copyright 2025 Fonticons, Inc.--><path d="M240 363.3L240 576L356 576L356 363.3L442.5 363.3L460.5 265.5L356 265.5L356 230.9C356 179.2 376.3 159.4 428.7 159.4C445 159.4 458.1 159.8 465.7 160.6L465.7 71.9C451.4 68 416.4 64 396.2 64C289.3 64 240 114.5 240 223.4L240 265.5L174 265.5L174 363.3L240 363.3z"/>
  </symbol>
  <symbol id="x" viewBox="0 0 640 640">
    <!--!Font Awesome Free v7.1.0 by @fontawesome - https://fontawesome.com License - https://fontawesome.com/license/free Copyright 2025 Fonticons, Inc.--><path d="M453.2 112L523.8 112L369.6 288.2L551 528L409 528L297.7 382.6L170.5 528L99.8 528L264.7 339.5L90.8 112L236.4 112L336.9 244.9L453.2 112zM428.4 485.8L467.5 485.8L215.1 152L173.1 152L428.4 485.8z"/>
  </symbol>
  <symbol id="instagram" viewBox="0 0 640 640">
    <!--!Font Awesome Free v7.1.0 by @fontawesome - https://fontawesome.com License - https://fontawesome.com/license/free Copyright 2025 Fonticons, Inc.--><path d="M320.3 205C256.8 204.8 205.2 256.2 205 319.7C204.8 383.2 256.2 434.8 319.7 435C383.2 435.2 434.8 383.8 435 320.3C435.2 256.8 383.8 205.2 320.3 205zM319.7 245.4C360.9 245.2 394.4 278.5 394.6 319.7C394.8 360.9 361.5 394.4 320.3 394.6C279.1 394.8 245.6 361.5 245.4 320.3C245.2 279.1 278.5 245.6 319.7 245.4zM413.1 200.3C413.1 185.5 425.1 173.5 439.9 173.5C454.7 173.5 466.7 185.5 466.7 200.3C466.7 215.1 454.7 227.1 439.9 227.1C425.1 227.1 413.1 215.1 413.1 200.3zM542.8 227.5C541.1 191.6 532.9 159.8 506.6 133.6C480.4 107.4 448.6 99.2 412.7 97.4C375.7 95.3 264.8 95.3 227.8 97.4C192 99.1 160.2 107.3 133.9 133.5C107.6 159.7 99.5 191.5 97.7 227.4C95.6 264.4 95.6 375.3 97.7 412.3C99.4 448.2 107.6 480 133.9 506.2C160.2 532.4 191.9 540.6 227.8 542.4C264.8 544.5 375.7 544.5 412.7 542.4C448.6 540.7 480.4 532.5 506.6 506.2C532.8 480 541 448.2 542.8 412.3C544.9 375.3 544.9 264.5 542.8 227.5zM495 452C487.2 471.6 472.1 486.7 452.4 494.6C422.9 506.3 352.9 503.6 320.3 503.6C287.7 503.6 217.6 506.2 188.2 494.6C168.6 486.8 153.5 471.7 145.6 452C133.9 422.5 136.6 352.5 136.6 319.9C136.6 287.3 134 217.2 145.6 187.8C153.4 168.2 168.5 153.1 188.2 145.2C217.7 133.5 287.7 136.2 320.3 136.2C352.9 136.2 423 133.6 452.4 145.2C472 153 487.1 168.1 495 187.8C506.7 217.3 504 287.3 504 319.9C504 352.5 506.7 422.6 495 452z"/>
  </symbol>
  <symbol id="chevron-down" viewBox="0 0 640 640">
    <!--!Font Awesome Free v7.1.0 by @fontawesome - https://fontawesome.com License - https://fontawesome.com/license/free Copyright 2025 Fonticons, Inc.--><path d="M331.3 475.3C325.1 481.5 314.9 481.5 308.7 475.3L100.7 267.3C94.5 261.1 94.5 250.9 100.7 244.7C106.9 238.5 117.1 238.5 123.3 244.7L320 441.4L516.7 244.7C522.9 238.5 533.1 238.5 539.3 244.7C545.5 250.9 545.5 261.1 539.3 267.3L331.3 475.3z"/>
  </symbol>
  <symbol id="chart-up" viewBox="0 0 640 640">
    <!--!Font Awesome Pro v7.1.0 by @fontawesome - https://fontawesome.com License - https://fontawesome.com/license (Commercial License) Copyright 2025 Fonticons, Inc.--><path d="M96 112C96 103.2 88.8 96 80 96C71.2 96 64 103.2 64 112L64 464C64 508.2 99.8 544 144 544L560 544C568.8 544 576 536.8 576 528C576 519.2 568.8 512 560 512L144 512C117.5 512 96 490.5 96 464L96 112zM384 208C384 216.8 391.2 224 400 224L489.4 224L384 329.4L299.3 244.7C293.1 238.5 282.9 238.5 276.7 244.7L164.7 356.7C158.5 362.9 158.5 373.1 164.7 379.3C170.9 385.5 181.1 385.5 187.3 379.3L288 278.6L372.7 363.3C378.9 369.5 389.1 369.5 395.3 363.3L512 246.6L512 336C512 344.8 519.2 352 528 352C536.8 352 544 344.8 544 336L544 208C544 199.2 536.8 192 528 192L400 192C391.2 192 384 199.2 384 208z"/>
  </symbol>
  <symbol id="chats" viewBox="0 0 640 640"><!--!Font Awesome Free v7.1.0 by @fontawesome - https://fontawesome.com License - https://fontawesome.com/license/free Copyright 2025 Fonticons, Inc.--><path d="M94.6 317.6C98.4 307.5 96.9 296 90.5 287.3C73.6 264.4 64 237.1 64 208C64 131 133 64 224 64C315 64 384 131 384 208C384 285 315 352 224 352C206 352 188.8 349.3 172.8 344.5C166 342.4 158.7 342.7 152.1 345.2L72.6 375.5L94.6 317.7zM32 208C32 244.4 44 278.2 64.7 306.2L33.3 388.5C32.4 390.8 32 393.2 32 395.7C32 406.9 41.1 416 52.3 416C54.8 416 57.2 415.5 59.5 414.7L163.5 375.1C182.5 380.9 202.9 384 224.1 384C330.1 384 416.1 305.2 416.1 208C416.1 110.8 330 32 224 32C118 32 32 110.8 32 208zM416 576C437.2 576 457.5 572.9 476.6 567.1L580.6 606.7C582.9 607.6 585.4 608 587.8 608C599 608 608.1 598.9 608.1 587.7C608.1 585.2 607.6 582.8 606.8 580.5L575.5 498.2C596.1 470.1 608.2 436.3 608.2 400C608.2 317.6 546.5 248.5 463.2 229.3C462.1 240.1 460.3 250.6 457.6 260.8C527.4 277.5 576.2 335.2 576.2 400C576.2 429.1 566.6 456.4 549.7 479.3C543.3 488.1 541.7 499.5 545.6 509.6L567.6 567.4L488.1 537.1C481.5 534.6 474.2 534.3 467.4 536.4C451.4 541.3 434.2 543.9 416.2 543.9C337.1 543.9 274.6 493.2 259.6 429.4C249 430.9 238.2 431.7 227.3 431.8C243.7 513.7 322 575.8 416.1 575.8z"/>
  </symbol>
  <symbol id="calendar-star" viewBox="0 0 448 512"><!--!Font Awesome Pro v6.7.2 by @fontawesome - https://fontawesome.com License - https://fontawesome.com/license (Commercial License) Copyright 2025 Fonticons, Inc.--><path d="M128 16c0-8.8-7.2-16-16-16s-16 7.2-16 16l0 48L64 64C28.7 64 0 92.7 0 128l0 32 0 32L0 448c0 35.3 28.7 64 64 64l320 0c35.3 0 64-28.7 64-64l0-256 0-32 0-32c0-35.3-28.7-64-64-64l-32 0 0-48c0-8.8-7.2-16-16-16s-16 7.2-16 16l0 48L128 64l0-48zM32 192l384 0 0 256c0 17.7-14.3 32-32 32L64 480c-17.7 0-32-14.3-32-32l0-256zM64 96l320 0c17.7 0 32 14.3 32 32l0 32L32 160l0-32c0-17.7 14.3-32 32-32zM245.5 231.5c-8.8-17.8-34.2-17.8-43 0l-22 44.6-49.2 7.2c-19.7 2.9-27.5 27.1-13.3 40.9l35.6 34.7-8.4 49c-3.4 19.6 17.2 34.6 34.8 25.3l44-23.2 44 23.2c17.6 9.3 38.2-5.7 34.8-25.3l-8.4-49 35.6-34.7c14.2-13.9 6.4-38.1-13.3-40.9l-49.2-7.2-22-44.6zm-40.1 66.3L224 260.2l18.6 37.6 3.7 7.5 8.3 1.2 41.5 6-30 29.3-6 5.9 1.4 8.3 7.1 41.4-37.1-19.5-7.4-3.9-7.4 3.9-37.1 19.5 7.1-41.4 1.4-8.3-6-5.9-30-29.3 41.5-6 8.3-1.2 3.7-7.5z"/>
  </symbol>
  <symbol id="person-arms-raised" viewBox="0 0 640 640"><!--!Font Awesome Pro v7.1.0 by @fontawesome - https://fontawesome.com License - https://fontawesome.com/license (Commercial License) Copyright 2025 Fonticons, Inc.--><path d="M175.7 44.9C174 36.2 165.5 30.6 156.9 32.3C148.3 34 142.6 42.5 144.3 51.1L151.2 85.6C161.7 138 195.2 180.8 240 204.3L240 592C240 600.8 247.2 608 256 608C264.8 608 272 600.8 272 592L272 432L368 432L368 592C368 600.8 375.2 608 384 608C392.8 608 400 600.8 400 592L400 204.3C444.8 180.8 478.3 138 488.8 85.6L495.7 51.1C497.4 42.4 491.8 34 483.1 32.3C474.4 30.6 466 36.2 464.3 44.9L457.4 79.4C444.3 144.9 386.8 192 320 192C253.2 192 195.7 144.9 182.6 79.3L175.7 44.9zM368 400L272 400L272 217.2C287.3 221.6 303.4 224 320 224C336.6 224 352.7 221.6 368 217.2L368 400zM296 88C296 74.7 306.7 64 320 64C333.3 64 344 74.7 344 88C344 101.3 333.3 112 320 112C306.7 112 296 101.3 296 88zM376 88C376 57.1 350.9 32 320 32C289.1 32 264 57.1 264 88C264 118.9 289.1 144 320 144C350.9 144 376 118.9 376 88z"/>
  </symbol>
  <symbol id="cloud-plus" viewBox="0 0 640 640"><!--!Font Awesome Pro v7.1.0 by @fontawesome - https://fontawesome.com License - https://fontawesome.com/license (Commercial License) Copyright 2025 Fonticons, Inc.--><path d="M160 240C160 178.1 210.1 128 272 128C311.3 128 345.8 148.2 365.8 178.8C370.2 185.5 378.9 187.9 386.1 184.5C397.5 179 410.4 176 424 176C472.6 176 512 215.4 512 264C512 278.1 508.7 291.4 502.8 303.2C500.8 307.3 500.6 312.1 502.3 316.3C504 320.5 507.5 323.9 511.8 325.4C549.2 338.5 576 374.2 576 416C576 469 533 512 480 512L176 512C114.1 512 64 461.9 64 400C64 346.3 101.8 301.4 152.2 290.5C156.5 289.6 160.3 286.9 162.5 283.1C164.7 279.3 165.4 274.8 164.2 270.5C161.5 260.8 160 250.6 160 240zM272 96C192.5 96 128 160.5 128 240C128 248 128.7 255.9 129.9 263.5C73 282.7 32 336.5 32 400C32 479.5 96.5 544 176 544L480 544C550.7 544 608 486.7 608 416C608 366.1 579.5 323 537.9 301.8C541.8 289.9 544 277.2 544 264C544 197.7 490.3 144 424 144C410.3 144 397.1 146.3 384.8 150.5C358.4 117.3 317.7 96 272 96zM304 424C304 432.8 311.2 440 320 440C328.8 440 336 432.8 336 424L336 368L392 368C400.8 368 408 360.8 408 352C408 343.2 400.8 336 392 336L336 336L336 280C336 271.2 328.8 264 320 264C311.2 264 304 271.2 304 280L304 336L248 336C239.2 336 232 343.2 232 352C232 360.8 239.2 368 248 368L304 368L304 424z"/>
  </symbol>
  <symbol id="cloud-up" viewBox="0 0 640 640"><!--!Font Awesome Pro v7.1.0 by @fontawesome - https://fontawesome.com License - https://fontawesome.com/license (Commercial License) Copyright 2025 Fonticons, Inc.--><path d="M160 240C160 178.1 210.1 128 272 128C311.3 128 345.8 148.2 365.8 178.8C370.2 185.5 378.9 187.9 386.1 184.5C397.5 179 410.4 176 424 176C472.6 176 512 215.4 512 264C512 278.1 508.7 291.4 502.8 303.2C500.8 307.3 500.6 312.1 502.3 316.3C504 320.5 507.5 323.9 511.8 325.4C549.2 338.5 576 374.2 576 416C576 469 533 512 480 512L176 512C114.1 512 64 461.9 64 400C64 346.3 101.8 301.4 152.2 290.5C156.5 289.6 160.3 286.9 162.5 283.1C164.7 279.3 165.4 274.8 164.2 270.5C161.5 260.8 160 250.6 160 240zM272 96C192.5 96 128 160.5 128 240C128 248 128.7 255.9 129.9 263.5C73 282.7 32 336.5 32 400C32 479.5 96.5 544 176 544L480 544C550.7 544 608 486.7 608 416C608 366.1 579.5 323 537.9 301.8C541.8 289.9 544 277.2 544 264C544 197.7 490.3 144 424 144C410.3 144 397.1 146.3 384.8 150.5C358.4 117.3 317.7 96 272 96zM331.3 260.7C325.1 254.5 314.9 254.5 308.7 260.7L236.7 332.7C230.5 338.9 230.5 349.1 236.7 355.3C242.9 361.5 253.1 361.5 259.3 355.3L304 310.6L304 432C304 440.8 311.2 448 320 448C328.8 448 336 440.8 336 432L336 310.6L380.7 355.3C386.9 361.5 397.1 361.5 403.3 355.3C409.5 349.1 409.5 338.9 403.3 332.7L331.3 260.7z"/>
  </symbol>
  <symbol id="cloud-question" viewBox="0 0 640 640"><!--!Font Awesome Pro v7.1.0 by @fontawesome - https://fontawesome.com License - https://fontawesome.com/license (Commercial License) Copyright 2025 Fonticons, Inc.--><path d="M160 240C160 178.1 210.1 128 272 128C311.3 128 345.8 148.2 365.8 178.8C370.2 185.5 378.9 187.9 386.1 184.5C397.5 179 410.4 176 424 176C472.6 176 512 215.4 512 264C512 278.1 508.7 291.4 502.8 303.2C500.8 307.3 500.6 312.1 502.3 316.3C504 320.5 507.5 323.9 511.8 325.4C549.2 338.5 576 374.2 576 416C576 469 533 512 480 512L176 512C114.1 512 64 461.9 64 400C64 346.3 101.8 301.4 152.2 290.5C156.5 289.6 160.3 286.9 162.5 283.1C164.7 279.3 165.4 274.8 164.2 270.5C161.5 260.8 160 250.6 160 240zM272 96C192.5 96 128 160.5 128 240C128 248 128.7 255.9 129.9 263.5C73 282.7 32 336.5 32 400C32 479.5 96.5 544 176 544L480 544C550.7 544 608 486.7 608 416C608 366.1 579.5 323 537.9 301.8C541.8 289.9 544 277.2 544 264C544 197.7 490.3 144 424 144C410.3 144 397.1 146.3 384.8 150.5C358.4 117.3 317.7 96 272 96zM320 272C340.6 272 357.2 288.7 357.2 309.2C357.2 327 346.2 336.2 334 341.7C319.3 348.3 303.9 363.2 303.9 384C303.9 392.8 311.1 400 319.9 400C328.7 400 335.9 392.8 335.9 384C335.9 380.2 339.3 374.4 347 370.9C364.8 362.9 389.1 345 389.1 309.2C389.1 271 358.1 240 319.9 240C281.7 240 250.7 271 250.7 309.2C250.7 318 257.9 325.2 266.7 325.2C275.5 325.2 282.7 318 282.7 309.2C282.7 288.6 299.4 272 319.9 272zM340 448C340 437 331 428 320 428C309 428 300 437 300 448C300 459 309 468 320 468C331 468 340 459 340 448z"/>
  </symbol>
  <symbol id="email" viewBox="0 0 640 640"><!--!Font Awesome Pro v7.1.0 by @fontawesome - https://fontawesome.com License - https://fontawesome.com/license (Commercial License) Copyright 2025 Fonticons, Inc.--><path d="M64 186.5L64 184L64.1 184C65.3 152.9 91 128 122.5 128L517.5 128C549 128 574.6 152.9 575.9 184L576 184L576 448C576 483.3 547.3 512 512 512L128 512C92.7 512 64 483.3 64 448L64 186.5zM544 239.6L367.3 369.1C339.1 389.7 300.8 389.7 272.7 369.1L96 239.6L96 448C96 465.7 110.3 480 128 480L512 480C529.7 480 544 465.7 544 448L544 239.6zM544 186.5C544 171.9 532.1 160 517.5 160L122.5 160C107.9 160 96 171.9 96 186.5C96 194.9 100 202.9 106.8 207.9L291.6 343.3C308.5 355.7 331.5 355.7 348.4 343.3L533.2 207.8C540 202.8 544 194.9 544 186.4z"/>
  </symbol>
  <symbol id="phone" viewBox="0 0 640 640"><!--!Font Awesome Pro v7.1.0 by @fontawesome - https://fontawesome.com License - https://fontawesome.com/license (Commercial License) Copyright 2025 Fonticons, Inc.--><path d="M208.4 106.7C205 98.7 196.2 94.4 187.8 96.6L181.1 98.4C127.9 113 86.1 163.1 98.2 221.4C131.6 382 258.1 508.4 418.7 541.9C476.9 554 527.1 512.2 541.6 458.9L543.4 452.2C545.7 443.8 541.4 435 533.3 431.6L440 392.7C432.9 389.8 424.8 391.8 419.9 397.7L383.3 442.4C378.6 448.1 370.7 449.9 364.1 446.7C289.1 411.1 229.1 349.1 196 272.7C193.2 266.1 195 258.5 200.6 254L242.2 219.9C248.1 215.1 250.2 206.9 247.2 199.8L208.4 106.7zM179.4 65.8C203.3 59.3 228.4 71.5 237.9 94.4L276.8 187.7C285.2 207.8 279.4 231.1 262.5 244.9L230.4 271.2C259.4 331.7 307.5 381.4 366.7 412.5L395.2 377.6C409 360.7 432.2 354.9 452.4 363.3L545.7 402.2C568.6 411.7 580.8 436.8 574.3 460.7L572.5 467.4C554.8 532.3 491.2 589.6 412.2 573.2C239.1 537.2 102.9 401 66.9 227.9C50.4 148.8 107.7 85.3 172.7 67.6L179.4 65.8z"/>
  </symbol>
  <symbol id="email-duo" viewBox="0 0 640 640"><!--!Font Awesome Pro v7.1.0 by @fontawesome - https://fontawesome.com License - https://fontawesome.com/license (Commercial License) Copyright 2025 Fonticons, Inc.-->
    <path fill="currentColor" opacity=".4" d="M96 186.5C96 194.9 100 202.9 106.8 207.9L291.6 343.3C308.5 355.7 331.5 355.7 348.4 343.3L533.2 207.8C540 202.8 544 194.9 544 186.4C544 171.8 532.1 159.9 517.5 159.9L122.5 159.9C107.9 160 96 171.9 96 186.5zM96 239.6L96 448C96 465.7 110.3 480 128 480L512 480C529.7 480 544 465.7 544 448L544 239.6L367.3 369.2C339.1 389.8 300.8 389.8 272.7 369.2L96 239.6z"/>
    <path fill="currentColor" d="M64 186.5L64 184L64.1 184C65.3 152.9 91 128 122.5 128L517.5 128C549 128 574.6 152.9 575.9 184L576 184L576 448C576 483.3 547.3 512 512 512L128 512C92.7 512 64 483.3 64 448L64 186.5zM544 239.6L367.3 369.1C339.1 389.7 300.8 389.7 272.7 369.1L96 239.6L96 448C96 465.7 110.3 480 128 480L512 480C529.7 480 544 465.7 544 448L544 239.6zM544 186.5C544 171.9 532.1 160 517.5 160L122.5 160C107.9 160 96 171.9 96 186.5C96 194.9 100 202.9 106.8 207.9L291.6 343.3C308.5 355.7 331.5 355.7 348.4 343.3L533.2 207.8C540 202.8 544 194.9 544 186.4z"/>
  </symbol>
  <symbol id="chevron-down-solid" viewBox="0 0 448 512"><!--!Font Awesome Free v7.1.0 by @fontawesome - https://fontawesome.com License - https://fontawesome.com/license/free Copyright 2025 Fonticons, Inc.--><path d="M201.4 406.6c12.5 12.5 32.8 12.5 45.3 0l192-192c12.5-12.5 12.5-32.8 0-45.3s-32.8-12.5-45.3 0L224 338.7 54.6 169.4c-12.5-12.5-32.8-12.5-45.3 0s-12.5 32.8 0 45.3l192 192z"/></symbol>
  <symbol id="circle-arrow-right" viewBox="0 0 512 512"><!--!Font Awesome Pro v7.1.0 by @fontawesome - https://fontawesome.com License - https://fontawesome.com/license (Commercial License) Copyright 2025 Fonticons, Inc.--><path d="M256 32a224 224 0 1 1 0 448 224 224 0 1 1 0-448zm0 480a256 256 0 1 0 0-512 256 256 0 1 0 0 512zm91.3-244.7c6.2-6.2 6.2-16.4 0-22.6l-72-72c-6.2-6.2-16.4-6.2-22.6 0s-6.2 16.4 0 22.6L297.4 240 176 240c-8.8 0-16 7.2-16 16s7.2 16 16 16l121.4 0-44.7 44.7c-6.2 6.2-6.2 16.4 0 22.6s16.4 6.2 22.6 0l72-72z"/></symbol>
  <symbol id="arrow-up-right-from-square" viewBox="0 0 512 512"><!--!Font Awesome Pro v7.1.0 by @fontawesome - https://fontawesome.com License - https://fontawesome.com/license (Commercial License) Copyright 2025 Fonticons, Inc.--><path d="M304 0c-8.8 0-16 7.2-16 16s7.2 16 16 16l153.4 0-260.7 260.7c-6.2 6.2-6.2 16.4 0 22.6s16.4 6.2 22.6 0L480 54.6 480 208c0 8.8 7.2 16 16 16s16-7.2 16-16l0-192c0-8.8-7.2-16-16-16L304 0zM80 96C35.8 96 0 131.8 0 176L0 432c0 44.2 35.8 80 80 80l256 0c44.2 0 80-35.8 80-80l0-96c0-8.8-7.2-16-16-16s-16 7.2-16 16l0 96c0 26.5-21.5 48-48 48L80 480c-26.5 0-48-21.5-48-48l0-256c0-26.5 21.5-48 48-48l96 0c8.8 0 16-7.2 16-16s-7.2-16-16-16L80 96z"/></symbol>
  <symbol id="file-pdf" viewBox="0 0 576 512"><!--!Font Awesome Pro v7.1.0 by @fontawesome - https://fontawesome.com License - https://fontawesome.com/license (Commercial License) Copyright 2025 Fonticons, Inc.--><path d="M224 32L96 32C78.3 32 64 46.3 64 64l0 384c0 17.7 14.3 32 32 32l80 0 0 32-80 0c-35.3 0-64-28.7-64-64L32 64C32 28.7 60.7 0 96 0L229.5 0c17 0 33.3 6.7 45.3 18.7L397.3 141.3c12 12 18.7 28.3 18.7 45.3l0 149.5-32 0 0-144-96 0c-35.3 0-64-28.7-64-64l0-96zM370.7 160L256 45.3 256 128c0 17.7 14.3 32 32 32l82.7 0zM240 384l32 0c30.9 0 56 25.1 56 56s-25.1 56-56 56l-16 0 0 32c0 8.8-7.2 16-16 16s-16-7.2-16-16l0-128c0-8.8 7.2-16 16-16zm32 80c13.3 0 24-10.7 24-24s-10.7-24-24-24l-16 0 0 48 16 0zm96-80l32 0c26.5 0 48 21.5 48 48l0 64c0 26.5-21.5 48-48 48l-32 0c-8.8 0-16-7.2-16-16l0-128c0-8.8 7.2-16 16-16zm32 128c8.8 0 16-7.2 16-16l0-64c0-8.8-7.2-16-16-16l-16 0 0 96 16 0zm80-112c0-8.8 7.2-16 16-16l48 0c8.8 0 16 7.2 16 16s-7.2 16-16 16l-32 0 0 32 32 0c8.8 0 16 7.2 16 16s-7.2 16-16 16l-32 0 0 48c0 8.8-7.2 16-16 16s-16-7.2-16-16l0-128z"/></symbol>
  <symbol id="cloud-question-mark-duotone" viewBox="0 0 576 512"><!--!Font Awesome Pro v7.1.0 by @fontawesome - https://fontawesome.com License - https://fontawesome.com/license (Commercial License) Copyright 2025 Fonticons, Inc.--><path opacity=".4" d="M32 336c0 61.9 50.1 112 112 112l304 0c53 0 96-43 96-96 0-41.8-26.8-77.5-64.2-90.6-4.3-1.5-7.8-4.8-9.5-9.1s-1.5-9 .5-13.1c5.9-11.8 9.2-25.1 9.2-39.2 0-48.6-39.4-88-88-88-13.6 0-26.4 3.1-37.9 8.5-7.2 3.5-15.9 1-20.3-5.7-20-30.6-54.6-50.8-93.8-50.8-61.9 0-112 50.1-112 112 0 10.6 1.5 20.9 4.2 30.5 1.2 4.3 .6 8.8-1.7 12.6s-6 6.5-10.3 7.4C69.8 237.4 32 282.3 32 336zm186.8-90.8c0-38.2 31-69.2 69.2-69.2s69.2 31 69.2 69.2c0 35.8-24.3 53.7-42.1 61.7-7.8 3.5-11.1 9.2-11.1 13.1 0 8.8-7.2 16-16 16s-16-7.2-16-16c0-20.8 15.3-35.7 30.1-42.3 12.2-5.4 23.2-14.7 23.2-32.5 0-20.6-16.7-37.2-37.2-37.2s-37.2 16.7-37.2 37.2c0 8.8-7.2 16-16 16s-16-7.2-16-16zM308 384a20 20 0 1 1 -40 0 20 20 0 1 1 40 0z"/><path d="M128 176c0-61.9 50.1-112 112-112 39.3 0 73.8 20.2 93.8 50.8 4.4 6.7 13.1 9.1 20.3 5.7 11.4-5.5 24.3-8.5 37.9-8.5 48.6 0 88 39.4 88 88 0 14.1-3.3 27.4-9.2 39.2-2 4.1-2.2 8.9-.5 13.1s5.2 7.6 9.5 9.1c37.4 13.1 64.2 48.8 64.2 90.6 0 53-43 96-96 96l-304 0c-61.9 0-112-50.1-112-112 0-53.7 37.8-98.6 88.2-109.5 4.3-.9 8.1-3.6 10.3-7.4s2.9-8.3 1.7-12.6c-2.7-9.7-4.2-19.9-4.2-30.5zM240 32c-79.5 0-144 64.5-144 144 0 8 .7 15.9 1.9 23.5-56.9 19.2-97.9 73-97.9 136.5 0 79.5 64.5 144 144 144l304 0c70.7 0 128-57.3 128-128 0-49.9-28.5-93-70.1-114.2 3.9-11.9 6.1-24.6 6.1-37.8 0-66.3-53.7-120-120-120-13.7 0-26.9 2.3-39.2 6.5-26.4-33.2-67.1-54.5-112.8-54.5zm48 176c20.6 0 37.2 16.7 37.2 37.2 0 17.8-11 27-23.2 32.5-14.7 6.6-30.1 21.5-30.1 42.3 0 8.8 7.2 16 16 16s16-7.2 16-16c0-3.8 3.4-9.6 11.1-13.1 17.8-8 42.1-25.9 42.1-61.7 0-38.2-31-69.2-69.2-69.2s-69.2 31-69.2 69.2c0 8.8 7.2 16 16 16s16-7.2 16-16c0-20.6 16.7-37.2 37.2-37.2zm20 176a20 20 0 1 0 -40 0 20 20 0 1 0 40 0z"/></symbol>
  
  <symbol id="oblong-yellow-red" viewBox="0 0 193 958">
    <rect width="192.6" height="957.6" rx="90" fill="url(#paint0_linear_236_141)"/>
    <defs>
    <linearGradient id="paint0_linear_236_141" x1="96.3" y1="0" x2="96.3" y2="957.6" gradientUnits="userSpaceOnUse">
    <stop stop-color="#FDBD2C"/>
    <stop offset="1" stop-color="#ED2124"/>
    </linearGradient>
    </defs>
  </symbol>

  <symbol id="oblong-yellow-green" viewBox="0 0 193 958">
    <rect width="192.6" height="957.6" rx="90" fill="url(#paint0_linear_236_143)"/>
    <defs>
    <linearGradient id="paint0_linear_236_143" x1="96.3" y1="0" x2="96.3" y2="957.6" gradientUnits="userSpaceOnUse">
    <stop stop-color="#FDBD2C"/>
    <stop offset="1" stop-color="#00AD8E"/>
    </linearGradient>
    </defs>
  </symbol>

  <symbol id="oblong-pink-red" viewBox="0 0 193 958">
    <rect width="192.6" height="957.6" rx="90" fill="url(#paint0_linear_236_114)"/>
    <defs>
    <linearGradient id="paint0_linear_236_114" x1="96.3" y1="0" x2="96.3" y2="957.6" gradientUnits="userSpaceOnUse">
    <stop stop-color="#ED2B94"/>
    <stop offset="1" stop-color="#ED1C24"/>
    </linearGradient>
    </defs>
  </symbol>

  <symbol id="oblong-pink-blue" viewBox="0 0 193 958">
    <rect width="192.6" height="957.6" rx="90" fill="url(#paint0_linear_236_132)"/>
    <defs>
    <linearGradient id="paint0_linear_236_132" x1="96.3" y1="0" x2="96.3" y2="957.6" gradientUnits="userSpaceOnUse">
    <stop stop-color="#ED2B94"/>
    <stop offset="1" stop-color="#00A1E4"/>
    </linearGradient>
    </defs>
  </symbol>

  <symbol id="oblong-green-blue" viewBox="0 0 193 958">
    <rect width="192.6" height="957.6" rx="90" fill="url(#paint0_linear_236_123)"/>
    <defs>
    <linearGradient id="paint0_linear_236_123" x1="96.3" y1="0" x2="96.3" y2="957.6" gradientUnits="userSpaceOnUse">
    <stop stop-color="#00A1E4"/>
    <stop offset="1" stop-color="#00AD8E"/>
    </linearGradient>
    </defs>
  </symbol>
</svg>